<?xml version="1.0" encoding="utf-8"?>
<!-- Generator: Adobe Illustrator 24.0.3, SVG Export Plug-In . SVG Version: 6.00 Build 0)  -->
<svg version="1.1" id="Layer_1" xmlns="http://www.w3.org/2000/svg" xmlns:xlink="http://www.w3.org/1999/xlink" x="0px" y="0px"
	 viewBox="0 0 156 156" style="enable-background:new 0 0 156 156;" xml:space="preserve">
<style type="text/css">
	.st0{fill:#27405C;}
</style>
<g id="Group_652" transform="translate(-188 -1345)">
	<g id="Group_534" transform="translate(2222.022 -430.276)">
		<path id="Path_4265" class="st0" d="M-1972.6,1892c-0.9,0.3-1.7,0.5-2.4,0.8c-0.5,0.2-1.2,0.1-1.6-0.3c-3.1-3.1-6.3-6.3-9.4-9.4
			c-0.3-0.4-0.4-0.8-0.4-1.2c0-0.5,0-0.9,0-1.4c-0.2-0.1-0.2-0.1-0.2-0.1c-1.7,0.3-2.8-0.6-3.9-1.7c-1.5-1.7-3.2-3.2-4.8-4.8
			c-1-1-1-1.5,0-2.5c5.5-5.5,11-11,16.5-16.6c0.3-0.4,0.5-0.7,0.7-1.2c0.2-0.4,0.4-0.7,0.7-1c3.2-3.2,6.5-6.5,9.7-9.7
			c2.2-2.4,5.8-3,8.6-1.4c1.8,1.1,3.9,1.6,6,1.7c2.7,0,5.3-1.3,7-3.5c3.8-4.9,8-9.5,12.6-13.6c2.2-2.1,4.7-3.8,7.4-5.1
			c1.5-0.7,3.1-1,4.7-0.7c3.5,0.7,5.8,4.1,5.1,7.7c-0.1,0.3-0.1,0.5-0.2,0.7c-1,2.8-2.5,5.4-4.5,7.5c-4.2,4.9-8.9,9.4-14,13.2
			c-4.1,2.9-5.4,8.3-3,12.7c0.6,1.1,1,2.3,1.2,3.6c0.3,2.1-0.4,4.2-1.9,5.7c-3.4,3.4-6.5,7.1-10.3,10.1c-3.4,2.7-6.2,5.9-9.3,8.8
			s-6.1,6-9.1,9.1c-1,1-1.6,1-2.6,0s-2-2.1-3.1-3.1c-0.6-0.5-0.8-1.3-0.4-2C-1973.1,1893.5-1972.9,1892.8-1972.6,1892z
			 M-1942.4,1869.7c2.2-1.7,2.6-3.2,1.4-5.7c-0.3-0.6-0.6-1.3-0.8-1.9c-2.1-5.3-0.6-11.3,3.7-15c1.3-1.1,2.7-2.1,4-3.2
			c4.3-3.5,8.2-7.5,11.7-11.9c1.3-1.5,2.2-3.3,2.6-5.2c0.2-1.4-0.8-2.8-2.2-3c-0.3,0-0.5,0-0.8,0c-1.1,0.2-2.2,0.6-3.1,1.2
			c-3.3,2-6.3,4.5-8.8,7.4c-2.9,3.1-5.7,6.5-8.5,9.7c-2.1,2.5-5.2,4.1-8.4,4.5c-2.9,0.4-5.8-0.2-8.3-1.7c-2.5-1.3-4.3-0.6-5.8,1.4
			L-1942.4,1869.7z M-1952.6,1880.6l-24.2-24.3c-0.1,0.2-0.3,0.5-0.5,0.7c-2.8,2.8-5.6,5.7-8.5,8.5c-0.8,0.7-1.1,1.9-0.5,2.8
			c0.6,1.4,1.7,2.6,3.2,3.1c2.8,1.2,5.6,2.3,8.4,3.3c3.4,1.3,7,2.4,10.4,3.7c2.5,0.9,4.6,2.5,6,4.8c0.4,0.7,0.7,1.5,0.9,2.2
			L-1952.6,1880.6z M-1944.5,1871.8l-23.3-23.3l-5.5,5.5l23.3,23.3L-1944.5,1871.8z"/>
		<path id="Path_4266" class="st0" d="M-1922.7,1827.9c-0.7,0-1.3-0.6-1.3-1.3c0-0.7,0.6-1.2,1.3-1.3c0.7,0,1.3,0.5,1.3,1.2
			c0,0,0,0,0,0.1C-1921.4,1827.3-1921.9,1827.9-1922.7,1827.9z"/>
	</g>
</g>
</svg>
