<svg id="Layer_1" data-name="Layer 1" xmlns="http://www.w3.org/2000/svg" viewBox="0 0 156 156"><defs><style>.cls-1{fill:#fff;}</style></defs><path class="cls-1" d="M153,79.52v.3c-.31.55-.65,1.09-.92,1.66-6.88,14.12-15,27.42-25.53,39.16-8.9,9.92-19.66,16.64-32.91,18.94-7.91,1.38-15.46.38-22.13-4.48-1.67-1.22-3.13-2.71-4.7-4.08a.85.85,0,0,0-.23.12,5.34,5.34,0,0,0-.35.48,19.41,19.41,0,0,1-18,8.68C38.32,139.7,30,135.57,23,128.78A95.34,95.34,0,0,1,7.5,108.45c-2.6-4.38-4.88-9-7.5-13.83L17.32,92c-5.46-17.27-4-33.86,5.7-49.28s23.91-24.43,42-26.65a54.79,54.79,0,0,1,42.24,12c15.29,12.24,22.3,28.46,21.91,47.67ZM114.77,98.65l.2.21L71.58,126.65a52.88,52.88,0,0,0,5.07,4c5.65,3.46,11.79,3.48,18,2,11-2.55,20-8.45,27.42-16.9a160.89,160.89,0,0,0,19.26-27.88c.62-1.11,1.2-2.25,1.88-3.52-2.25-.29-4.31-.58-6.36-.81-12-1.36-24-1.91-35.95-.17A48,48,0,0,0,73.65,96.65c-4.3,4.17-7.14,9.13-7.24,15.33a20.11,20.11,0,0,0,2.52,10Zm-104.54,1a2.92,2.92,0,0,0,.16.56c4.67,8.46,9.88,16.53,16.72,23.45a33.82,33.82,0,0,0,19.11,9.88c5,.81,9.58-.09,13.3-4.13L31.11,109.84l.15-.29,31,14.47a33.59,33.59,0,0,1-2.35-13.75c0-.43-.41-1-.77-1.33a34.43,34.43,0,0,0-20.36-9.87C29.23,97.82,19.81,98.37,10.23,99.67Zm58-29.89V47.19a83.42,83.42,0,0,0-18.91,2.67,1.87,1.87,0,0,0-1,1.21,66.64,66.64,0,0,0-1.41,6.68c-.56,4-1,7.94-1.42,12Zm6.85-22.59V69.78H97.51c.09-.18.17-.27.17-.35A88.44,88.44,0,0,0,95,50.76a1.45,1.45,0,0,0-.83-.88A84.16,84.16,0,0,0,75.12,47.19ZM45.39,76.52c.68,5,1.39,9.83,2,14.64.27,2.24,1,3.85,3.46,4.41a20,20,0,0,1,3.47,1.66,8.89,8.89,0,0,0,2.09.71c2.06.32,4.13.61,6.2.78A2,2,0,0,0,64,98.07c1.23-1.48,2.42-3,3.51-4.61a4.38,4.38,0,0,0,.82-2.25c.08-4.41,0-8.83,0-13.25,0-.47,0-.95-.07-1.44Zm73.34-22.86A51.23,51.23,0,0,0,90.94,26c0,.33,0,.45,0,.51a59.7,59.7,0,0,1,8.87,17.23A2.48,2.48,0,0,0,101.14,45c1.91.82,4,1.36,5.8,2.29C110.9,49.31,114.76,51.5,118.73,53.66ZM52.12,26.28C41.7,29.42,25.27,46,24.89,54A58.73,58.73,0,0,1,42.6,44.89a2.13,2.13,0,0,0,1-1.18c.79-1.93,1.34-4,2.28-5.81C47.86,33.94,50.06,30.07,52.12,26.28ZM40.9,52.58c-5.81,2.29-11.25,5.27-15.55,10a15.24,15.24,0,0,0-4,7.21H38.85C39.54,64,40.22,58.31,40.9,52.58Zm63.63,17.16H122c-1.27-7-10.86-14.16-19.48-17Q103.51,61.17,104.53,69.74ZM68.27,40.31V22.89c-6.9,1.22-14,10.67-17,19.46ZM92.4,42.37c-1.07-2.19-2.05-4.39-3.2-6.5a30.5,30.5,0,0,0-8.66-10.45,11.92,11.92,0,0,0-5.43-2.55V40.31Zm-71,34.15c1,6.68,13.54,16.93,19.27,16-.6-5.3-1.19-10.59-1.79-16ZM75.07,86.79c1.68-1.05,3.09-2,4.52-2.82a51.18,51.18,0,0,1,16.7-6.39A8.17,8.17,0,0,0,97.78,77l-.15-.46H75.07Z"/></svg>