<svg xmlns="http://www.w3.org/2000/svg" width="156" height="156" viewBox="0 0 156 156">
  <g id="Group_633" data-name="Group 633" transform="translate(2667 -7985)">
    <g id="Group_620" data-name="Group 620" transform="translate(-3272 7012)">
      <g id="Ellipse_8" data-name="Ellipse 8" transform="translate(605 973)" fill="none" stroke="#dfa91e" stroke-width="3">
        <circle cx="78" cy="78" r="78" stroke="none"/>
        <circle cx="78" cy="78" r="76.5" fill="none"/>
      </g>
      <g id="Group_536" data-name="Group 536" transform="translate(91 -246.599)">
        <g id="Group_535" data-name="Group 535" transform="translate(552 1245.623)">
          <path id="Path_4268" data-name="Path 4268" d="M1551.032,599.047c11.581,0,23.164.064,34.744-.05,2.573-.025,3.806.835,4.551,3.331a40.957,40.957,0,0,1-13.443,43.26,6.373,6.373,0,0,1-3.641,1.315q-22.25.134-44.5,0a5.982,5.982,0,0,1-3.434-1.218,40.787,40.787,0,0,1-13.509-43.631c.7-2.308,1.87-3.081,4.25-3.059C1527.71,599.1,1539.371,599.047,1551.032,599.047Zm-36.556,9.629h3.023q20,0,39.989,0a5.148,5.148,0,0,1,2.334.169,2.833,2.833,0,0,1,1.336,1.925c.034.544-.742,1.345-1.35,1.664a4.873,4.873,0,0,1-2.106.142q-20.589.012-41.179.012h-2.45c.007,12.218,4.353,22.076,13.5,29.725a3.994,3.994,0,0,0,2.394.643c13.964.04,27.928.066,41.892-.024a6.263,6.263,0,0,0,3.544-1.355,32.5,32.5,0,0,0,8.979-11.547,34.211,34.211,0,0,0,3.587-17.449h-2.447c-3.412,0-6.824-.013-10.235.005-1.425.007-2.929-.053-2.965-1.894-.04-2.028,1.576-2.038,3.067-2.021.952.011,1.9,0,2.856,0h9.507c-.465-2.085-.855-3.826-1.234-5.523h-70.845Z" transform="translate(-1510.046 -534.823)" fill="#27405c"/>
          <path id="Path_4269" data-name="Path 4269" d="M1558.242,549.475a23.689,23.689,0,0,1,1.508-3.785,49.13,49.13,0,0,1,3.839-5.677c1.454-1.887,2.607-1.951,3.972-.085a53.92,53.92,0,0,1,4.822,7.555,6.873,6.873,0,0,1-1.666,8.035,7.005,7.005,0,0,1-7.9,1.477C1559.926,555.781,1558.426,553.51,1558.242,549.475Zm7.473-6.2c-1.224,2.32-2.423,3.964-2.926,5.8a3.8,3.8,0,0,0,1.116,3.353,3.888,3.888,0,0,0,3.6.026,3.838,3.838,0,0,0,1.157-3.362C1568.2,547.315,1567.018,545.73,1565.715,543.271Z" transform="translate(-1535.259 -503.209)" fill="#27405c"/>
          <path id="Path_4270" data-name="Path 4270" d="M1596.178,571.623a16.814,16.814,0,0,1,1.072-2.69,34.982,34.982,0,0,1,2.73-4.036c1.034-1.341,1.853-1.386,2.824-.061a38.376,38.376,0,0,1,3.428,5.371,4.886,4.886,0,0,1-1.184,5.713,4.98,4.98,0,0,1-5.617,1.05C1597.375,576.106,1596.309,574.491,1596.178,571.623Zm5.313-4.41a23.348,23.348,0,0,0-2.08,4.122,2.705,2.705,0,0,0,.793,2.384,2.764,2.764,0,0,0,2.56.018,2.728,2.728,0,0,0,.823-2.39A22.512,22.512,0,0,0,1601.491,567.213Z" transform="translate(-1555.104 -516.445)" fill="#27405c"/>
          <g id="Group_534" data-name="Group 534" transform="translate(35.191 0)">
            <path id="Path_4265" data-name="Path 4265" d="M1597.529,506.535c-.534.172-.966.3-1.39.453a.821.821,0,0,1-.935-.194c-1.834-1.835-3.675-3.665-5.494-5.516a1.333,1.333,0,0,1-.26-.7,5.241,5.241,0,0,1-.01-.832c-.088-.048-.119-.077-.143-.072a2.354,2.354,0,0,1-2.252-1.012c-.885-.969-1.85-1.865-2.777-2.8-.572-.572-.568-.906.006-1.478q4.832-4.836,9.66-9.674a4.076,4.076,0,0,0,.432-.676,3.558,3.558,0,0,1,.411-.587q2.829-2.848,5.675-5.681a4.249,4.249,0,0,1,5.052-.846,7.109,7.109,0,0,0,3.514.965,5.3,5.3,0,0,0,4.086-2.035,60.938,60.938,0,0,1,7.346-7.964,16.315,16.315,0,0,1,4.348-2.988,4.507,4.507,0,0,1,2.743-.414,3.8,3.8,0,0,1,2.97,4.473,3.877,3.877,0,0,1-.116.439,12.432,12.432,0,0,1-2.618,4.394,49.4,49.4,0,0,1-8.192,7.733,5.762,5.762,0,0,0-1.777,7.428,7.124,7.124,0,0,1,.7,2.1,3.785,3.785,0,0,1-1.115,3.338,67.819,67.819,0,0,1-5.989,5.9c-1.979,1.574-3.629,3.434-5.444,5.145s-3.543,3.522-5.31,5.288c-.6.6-.906.606-1.511.01s-1.18-1.206-1.795-1.783a.96.96,0,0,1-.249-1.182C1597.244,507.391,1597.363,507.008,1597.529,506.535Zm17.627-13.033a2.33,2.33,0,0,0,.832-3.342c-.172-.366-.342-.733-.495-1.108a7.7,7.7,0,0,1,2.189-8.77c.773-.642,1.579-1.244,2.344-1.9a45.422,45.422,0,0,0,6.831-6.969,6.648,6.648,0,0,0,1.526-3.052,1.526,1.526,0,0,0-1.283-1.735,1.507,1.507,0,0,0-.465,0,6.232,6.232,0,0,0-1.837.708,23.074,23.074,0,0,0-5.15,4.343c-1.708,1.84-3.308,3.778-4.955,5.675a7.709,7.709,0,0,1-4.933,2.647,7.887,7.887,0,0,1-4.868-.979,2.359,2.359,0,0,0-3.382.814Zm-5.961,6.362L1595.043,485.7a2.793,2.793,0,0,1-.286.4c-1.646,1.655-3.275,3.329-4.962,4.941a1.311,1.311,0,0,0-.321,1.641,3.393,3.393,0,0,0,1.862,1.831c1.609.705,3.255,1.335,4.9,1.941,2.015.742,4.072,1.377,6.068,2.163a6.661,6.661,0,0,1,3.51,2.792,10.624,10.624,0,0,1,.544,1.291Zm4.725-5.162-13.591-13.609-3.22,3.219,13.593,13.612Z" transform="translate(-1583.841 -464.424)" fill="#27405c"/>
            <path id="Path_4266" data-name="Path 4266" d="M1672.89,472.485a.811.811,0,0,1-.763-.788.757.757,0,0,1,.746-.736.743.743,0,0,1,.776.71c0,.011,0,.023,0,.035A.78.78,0,0,1,1672.89,472.485Z" transform="translate(-1630.026 -467.843)" fill="#27405c"/>
          </g>
        </g>
      </g>
    </g>
  </g>
</svg>
