<svg xmlns="http://www.w3.org/2000/svg" width="156" height="156" viewBox="0 0 156 156">
  <g id="Group_653" data-name="Group 653" transform="translate(-605 -1345)">
    <g id="Ellipse_8" data-name="Ellipse 8" transform="translate(605 1345)" fill="none" stroke="#dfa91e" stroke-width="3">
      <circle cx="78" cy="78" r="78" stroke="none"/>
      <circle cx="78" cy="78" r="76.5" fill="none"/>
    </g>
    <g id="Group_538" data-name="Group 538" transform="translate(-773.355 1486.366)">
      <path id="Path_4273" data-name="Path 4273" d="M1502.319-75.077c-3.2,3.253-6.436,6.474-9.572,9.789a3.831,3.831,0,0,0-.97,2.348c-.089,4.831,0,9.665-.084,14.5a4.724,4.724,0,0,1-.872,2.668c-4.222,5.4-8.561,10.7-12.8,16.078a3.992,3.992,0,0,1-3.471,1.7c-16.849-.048-33.7-.029-50.547-.032-2.323,0-2.836-.521-2.837-2.877,0-11.492,0-22.985,0-34.849a34.916,34.916,0,0,1-4.073,1.96,2.952,2.952,0,0,1-2.395-.188,2.432,2.432,0,0,1-.146-2.227c2.127-4.461,4.362-8.873,6.619-13.271a5.02,5.02,0,0,1,1.416-1.556c5.673-4.394,11.349-8.785,17.081-13.1a4.745,4.745,0,0,1,2.655-.9c15.543-.054,31.086-.028,46.629-.057a2.944,2.944,0,0,1,2.954,1.653c3.383,5.78,6.93,11.465,10.417,17.184Zm-28.365,43.43V-77.276h-49.161v45.629Zm11.765-59.9h-2.624c-12.474,0-24.948.069-37.42-.056a9.559,9.559,0,0,0-6.744,2.251c-3.36,2.82-6.933,5.386-10.614,8.211a6.339,6.339,0,0,0,.865.172q22.433.009,44.865-.02a2.67,2.67,0,0,0,1.695-.666C1478.974-84.789,1482.146-87.986,1485.719-91.544Zm-7.628,12.807,8.565,14.176,11.643-11.6-8.564-14.156Zm-.429,43.919c3.626-4.533,6.918-8.635,10.185-12.758a1.853,1.853,0,0,0,.341-1.069c.024-3.89.015-7.781.015-11.73-2.233.878-2.546.782-3.721-1.163-1.65-2.731-3.275-5.477-4.921-8.211-.532-.884-1.1-1.749-1.9-3.026Z" transform="translate(0 0)" fill="#27405c"/>
      <path id="Path_4274" data-name="Path 4274" d="M1486.69-28.812c-2.808,0-5.616-.017-8.423.007-1.209.011-2.141-.406-2.178-1.693-.041-1.405.922-1.852,2.218-1.849,5.615.017,11.232-.056,16.844.082a2.8,2.8,0,0,1,2.127,1.628c.226,1.3-.874,1.839-2.164,1.83C1492.306-28.825,1489.5-28.812,1486.69-28.812Z" transform="translate(-37.422 -38.032)" fill="#27405c"/>
    </g>
  </g>
</svg>
