<svg xmlns="http://www.w3.org/2000/svg" xmlns:xlink="http://www.w3.org/1999/xlink" width="44" height="76" viewBox="0 0 44 76">
  <defs>
    <clipPath id="clip-path">
      <rect width="44" height="76" fill="none"/>
    </clipPath>
  </defs>
  <g id="Symbol_12_28" data-name="Symbol 12 – 28" clip-path="url(#clip-path)">
    <rect id="Rectangle_393" data-name="Rectangle 393" width="44" height="76" fill="none"/>
    <path id="Path_2" data-name="Path 2" d="M51.978,37.8c16.675,0,25.748-13.732,25.748-25.748V10.828A19.933,19.933,0,0,0,82.14,6.169,20.357,20.357,0,0,1,76.99,7.64a9.541,9.541,0,0,0,3.924-4.9,22.492,22.492,0,0,1-5.64,2.207A8.758,8.758,0,0,0,68.653,2a9.213,9.213,0,0,0-9.073,9.073,4.781,4.781,0,0,0,.245,1.962A25.353,25.353,0,0,1,41.188,3.471a9.391,9.391,0,0,0-1.226,4.659,9.743,9.743,0,0,0,3.924,7.6,8.267,8.267,0,0,1-4.169-1.226h0a8.962,8.962,0,0,0,7.357,8.828,7.56,7.56,0,0,1-2.452.245,4.173,4.173,0,0,1-1.717-.245,9.29,9.29,0,0,0,8.583,6.376,18.515,18.515,0,0,1-11.28,3.924A6.789,6.789,0,0,1,38,33.389,23.146,23.146,0,0,0,51.978,37.8" transform="translate(-38 -0.366)" fill="#e0ab26" fill-rule="evenodd"/>
  </g>
</svg>
