<svg xmlns="http://www.w3.org/2000/svg" xmlns:xlink="http://www.w3.org/1999/xlink" width="36" height="36" viewBox="0 0 36 36">
  <defs>
    <clipPath id="clip-path">
      <rect width="36" height="36" fill="none"/>
    </clipPath>
  </defs>
  <g id="Symbol_12_23" data-name="Symbol 12 – 23" clip-path="url(#clip-path)">
    <rect id="Rectangle_393" data-name="Rectangle 393" width="36" height="36" fill="none"/>
    <path id="Path_2" data-name="Path 2" d="M49.4,31.2c13.6,0,21-11.2,21-21v-1A16.257,16.257,0,0,0,74,5.4a16.6,16.6,0,0,1-4.2,1.2,7.781,7.781,0,0,0,3.2-4,18.345,18.345,0,0,1-4.6,1.8A7.143,7.143,0,0,0,63,2a7.514,7.514,0,0,0-7.4,7.4,3.9,3.9,0,0,0,.2,1.6A20.678,20.678,0,0,1,40.6,3.2a7.659,7.659,0,0,0-1,3.8,7.946,7.946,0,0,0,3.2,6.2,6.742,6.742,0,0,1-3.4-1h0a7.309,7.309,0,0,0,6,7.2,6.166,6.166,0,0,1-2,.2,3.4,3.4,0,0,1-1.4-.2,7.577,7.577,0,0,0,7,5.2,15.1,15.1,0,0,1-9.2,3.2,5.537,5.537,0,0,1-1.8-.2,18.878,18.878,0,0,0,11.4,3.6" transform="translate(-38 -0.001)" fill="#fff" fill-rule="evenodd"/>
  </g>
</svg>
