<svg xmlns="http://www.w3.org/2000/svg" width="156" height="156" viewBox="0 0 156 156">
  <g id="Group_654" data-name="Group 654" transform="translate(-1034 -1345)">
    <g id="Ellipse_8" data-name="Ellipse 8" transform="translate(1034 1345)" fill="none" stroke="#dfa91e" stroke-width="3">
      <circle cx="78" cy="78" r="78" stroke="none"/>
      <circle cx="78" cy="78" r="76.5" fill="none"/>
    </g>
    <g id="Group_542" data-name="Group 542" transform="translate(-508.32 24.697) rotate(42)">
      <path id="Path_4278" data-name="Path 4278" d="M2118.307-36.982c0-8.235.014-16.469-.014-24.7a4.944,4.944,0,0,1,1.4-3.587q9.458-9.952,18.926-19.895a4.125,4.125,0,0,1,6.16-.014c6.415,6.834,12.841,13.658,19.182,20.56a4.511,4.511,0,0,1,.943,2.806c.069,8.9.041,17.793.039,26.689q0,11.58,0,23.16c0,2.058-.382,2.436-2.442,2.436q-20.785,0-41.57,0c-2.208,0-2.623-.422-2.623-2.641Q2118.306-24.575,2118.307-36.982Zm43.484,24.242v-1.067q0-23.763-.029-47.526a2.768,2.768,0,0,0-.678-1.722q-9.1-9.752-18.28-19.435c-1-1.065-1.364-1.054-2.4.049q-8.888,9.426-17.785,18.842a3.381,3.381,0,0,0-1.009,2.539q.04,23.653.021,47.305c0,.32.036.64.058,1.014Z" transform="translate(0 0)" fill="#27405d"/>
      <path id="Path_4279" data-name="Path 4279" d="M2173.27,88.269c.018,1.266-.474,2.06-1.587,2.089-2.564.067-3.827,1.285-4.165,3.81-.178,1.325-1.176,1.759-2.477,1.431l-.107-.029c-1.158-.323-2.436-1.1-3.441-.84s-1.76,1.569-2.631,2.41c-.977.944-1.7.953-2.663.039a6.12,6.12,0,0,1-.931-.936,4.166,4.166,0,0,0-5.477-1.659,4.957,4.957,0,0,1-1.4.258,1.637,1.637,0,0,1-1.783-1.168,2.1,2.1,0,0,1-.175-.748c.086-2.422-1.227-3.407-3.483-3.777-1.757-.288-2.2-1.109-1.464-2.762,1.028-2.3.694-3.96-1.362-5.52-1.559-1.183-1.428-1.927-.016-3.342a4.049,4.049,0,0,1,.629-.616c2.066-1.3,2.335-3.128,1.6-5.281a5.069,5.069,0,0,1-.232-1.3c-.069-1.072.438-1.888,1.5-1.91,2.6-.055,3.911-1.26,4.232-3.854.162-1.3,1.179-1.716,2.5-1.365a8.139,8.139,0,0,1,1.684.5c1.5.78,2.476.245,3.556-.922,2.358-2.548,2.541-2.587,4.858.026,1.425,1.607,2.829,2.206,4.818,1.381a6.53,6.53,0,0,1,1.287-.288c1.525-.289,2.416.234,2.506,1.772.132,2.241,1.046,3.457,3.392,3.774,1.792.242,2.371,1.289,1.613,2.939-1.089,2.369-.628,4.054,1.42,5.6,1.191.9,1.075,1.784,0,2.873a20.872,20.872,0,0,1-2.039,2.009,2.09,2.09,0,0,0-.719,2.506C2172.975,86.36,2173.105,87.385,2173.27,88.269Zm-30.024-8.9c.745.645,1.45,1.228,2.124,1.844a2.042,2.042,0,0,1,.609,2.295c-.284.9-.482,1.83-.717,2.741,1.208.477,2.673.64,3.405,1.459.761.851.813,2.336,1.189,3.588,1-.212,2.014-.386,3-.648a2.271,2.271,0,0,1,2.557.768c.7.829,1.479,1.591,2.382,2.551,1.7-3.1,4.13-3.316,6.84-1.912.541-1.329.724-2.778,1.546-3.519s2.286-.779,3.56-1.151c-.159-.986-.275-2.041-.509-3.069a2.39,2.39,0,0,1,.943-2.613c.764-.615,1.476-1.3,2.4-2.11-3.128-1.685-3.3-4.153-1.913-6.849-1.339-.547-2.792-.733-3.53-1.558s-.764-2.293-1.125-3.559c-1.038.181-2.12.353-3.194.56a2.28,2.28,0,0,1-2.288-.733c-.758-.837-1.543-1.651-2.47-2.639-1.663,3.12-4.14,3.273-7.227,1.74.1,3.452-1.709,4.745-4.764,4.59.215,1.34.387,2.459.575,3.575a2.218,2.218,0,0,1-.762,2.171C2145.056,77.627,2144.273,78.4,2143.245,79.372Z" transform="translate(-16.131 -114.843)" fill="#27405d"/>
      <path id="Path_4280" data-name="Path 4280" d="M2197.937-35.575a7.422,7.422,0,0,1,7.437,7.415,7.463,7.463,0,0,1-7.586,7.509,7.462,7.462,0,0,1-7.379-7.493A7.407,7.407,0,0,1,2197.937-35.575Zm-.009,11.586a4.106,4.106,0,0,0,4.126-4.114,4.107,4.107,0,0,0-4.2-4.15,4.116,4.116,0,0,0-4.127,4.112A4.11,4.11,0,0,0,2197.928-23.989Z" transform="translate(-56.183 -39.717)" fill="#27405d"/>
      <path id="Path_4281" data-name="Path 4281" d="M2192.513,125.5c.252-.374.459-.7.688-1.017q4.578-6.271,9.161-12.539c1.4-1.923,1.4-1.923,4.038-1.708-.264.381-.474.7-.7,1-3.117,4.269-6.323,8.478-9.31,12.837C2195.347,125.606,2194.188,125.838,2192.513,125.5Z" transform="translate(-57.822 -153.243)" fill="#27405d"/>
      <path id="Path_4282" data-name="Path 4282" d="M2232.188,149.284a3.491,3.491,0,1,1-3.394,3.438A3.4,3.4,0,0,1,2232.188,149.284Zm1.677,3.522c-.651-.717-1.013-1.379-1.566-1.65-.532-.26-1.239.732-1.169,1.641.057.734.219,1.664,1.149,1.528C2232.793,154.25,2233.206,153.471,2233.865,152.807Z" transform="translate(-86.088 -183.735)" fill="#27405d"/>
      <path id="Path_4283" data-name="Path 4283" d="M2196.268,112.06a3.379,3.379,0,0,1-3.3,3.526,3.438,3.438,0,0,1-3.344-3.512,3.474,3.474,0,0,1,3.27-3.488A3.428,3.428,0,0,1,2196.268,112.06Zm-1.87.169c-.676-.689-1.061-1.33-1.62-1.578-.53-.235-1.227.793-1.128,1.678.08.719.225,1.671,1.183,1.482C2193.354,113.709,2193.742,112.925,2194.4,112.229Z" transform="translate(-55.57 -152.028)" fill="#27405d"/>
    </g>
  </g>
</svg>
