<svg xmlns="http://www.w3.org/2000/svg" width="156" height="156" viewBox="0 0 156 156">
  <g id="Group_639" data-name="Group 639" transform="translate(2496 -8357)">
    <g id="Group_629" data-name="Group 629" transform="translate(-3101 7012)">
      <g id="Ellipse_8" data-name="Ellipse 8" transform="translate(605 1345)" fill="#dfa91e" stroke="#dfa91e" stroke-width="3">
        <circle cx="78" cy="78" r="78" stroke="none"/>
        <circle cx="78" cy="78" r="76.5" fill="none"/>
      </g>
      <g id="Group_538" data-name="Group 538" transform="translate(-778.355 1477.61)">
        <path id="Path_4273" data-name="Path 4273" d="M1520.355-70.974c-3.857,3.92-7.755,7.8-11.534,11.8a4.617,4.617,0,0,0-1.169,2.829c-.107,5.821,0,11.647-.1,17.469a5.693,5.693,0,0,1-1.05,3.216c-5.088,6.5-10.316,12.892-15.428,19.374a4.81,4.81,0,0,1-4.183,2.047c-20.3-.058-40.607-.035-60.911-.039-2.8,0-3.418-.628-3.419-3.467-.006-13.848,0-27.7,0-41.994a42.088,42.088,0,0,1-4.908,2.362,3.557,3.557,0,0,1-2.885-.226c-.486-.382-.532-1.936-.177-2.683,2.564-5.376,5.257-10.692,7.976-15.992a6.05,6.05,0,0,1,1.706-1.874c6.836-5.295,13.676-10.586,20.584-15.786a5.716,5.716,0,0,1,3.2-1.079c18.729-.065,37.459-.034,56.189-.069a3.547,3.547,0,0,1,3.56,1.992c4.076,6.965,8.351,13.816,12.553,20.707Zm-34.181,52.335V-73.623h-59.24v54.984Zm14.177-72.178h-3.162c-15.031,0-30.063.083-45.092-.067a11.519,11.519,0,0,0-8.127,2.712c-4.048,3.4-8.354,6.49-12.79,9.894a7.643,7.643,0,0,0,1.043.207q27.032.011,54.064-.024a3.218,3.218,0,0,0,2.042-.8C1492.222-82.677,1496.045-86.529,1500.35-90.817Zm-9.192,15.433L1501.479-58.3l14.03-13.98-10.319-17.058Zm-.517,52.924c4.37-5.462,8.337-10.405,12.273-15.374a2.233,2.233,0,0,0,.411-1.288c.029-4.688.018-9.377.018-14.135-2.69,1.058-3.068.942-4.484-1.4-1.988-3.291-3.947-6.6-5.93-9.894-.641-1.065-1.32-2.107-2.289-3.647Z" transform="translate(0)" fill="#27405c"/>
        <path id="Path_4274" data-name="Path 4274" d="M1488.864-28.087c-3.384,0-6.767-.02-10.15.009-1.457.013-2.58-.489-2.625-2.041-.049-1.693,1.111-2.232,2.672-2.228,6.766.02,13.535-.067,20.3.1a3.378,3.378,0,0,1,2.563,1.962c.273,1.562-1.053,2.216-2.608,2.206C1495.631-28.1,1492.247-28.087,1488.864-28.087Z" transform="translate(-32.438 -32.966)" fill="#27405c"/>
      </g>
    </g>
  </g>
</svg>
