<svg xmlns="http://www.w3.org/2000/svg" width="156" height="156" viewBox="0 0 156 156">
  <g id="Group_657" data-name="Group 657" transform="translate(-188 -973)">
    <g id="Ellipse_9" data-name="Ellipse 9" transform="translate(188 973)" fill="none" stroke="#dfa91e" stroke-width="3">
      <circle cx="78" cy="78" r="78" stroke="none"/>
      <circle cx="78" cy="78" r="76.5" fill="none"/>
    </g>
    <path id="Path_4267" data-name="Path 4267" d="M301.248,608.107a43.274,43.274,0,0,0-2.657-16.062,17.245,17.245,0,0,0,.653-7.069,43.413,43.413,0,0,0-5.933-17.208c-5.832-10.1-13.944-16.888-20.187-16.888a7.052,7.052,0,0,0-3.385.824c-8.69-7.472-17.151-9.884-21.951-6.1-6.412,5.051-3.3,19.337,7.09,32.526l4.309,5.469a1.76,1.76,0,0,0,2.765-2.179l-2.624-3.33a4.691,4.691,0,1,1-3.972,4.633c0-.083.008-.164.013-.246l-2.178-2.765a56.636,56.636,0,0,1-4.428-6.489l-7.567,4.369a1.181,1.181,0,0,1-1.181-2.046l7.607-4.392q-.947-1.808-1.7-3.6l-8.8,5.082a6.679,6.679,0,0,0-3.042.853c-5.862,3.385-5.036,15.419,1.879,27.4,5.595,9.689,13.379,16.2,19.367,16.2a6.756,6.756,0,0,0,3.42-.875,6.633,6.633,0,0,0,2.279-2.22l28.619-16.523a40.13,40.13,0,0,1,1.282,10.6c0,.014,0,.027,0,.04a2.425,2.425,0,1,0,4.849,0V616.1a2.739,2.739,0,1,0,5.478.009h0Zm-39.83-42.194-7.686,4.437c-.422-.686-.816-1.366-1.19-2.04l7.694-4.443a1.181,1.181,0,0,1,1.181,2.046Zm4.945-10.167-15.6,9.01c-3.477-7.761-3.607-14.172-.791-16.39,3.213-2.532,10.213-.1,17.2,5.781A9.061,9.061,0,0,0,266.364,555.746Zm29.316,30.711c-.014-.02-.026-.041-.04-.063h-13.48a21.936,21.936,0,0,0,3.918,3.034,1.37,1.37,0,0,1-1.394,2.358,27.51,27.51,0,0,1-6.317-5.392h-.009a43.062,43.062,0,0,1-5.068-7.07c-5.911-10.238-6.83-20.773-2.051-23.533s13.443,3.305,19.354,13.544C294.17,575.53,295.915,581.832,295.679,586.457Z" transform="translate(0.722 469.604)" fill="#27405c" stroke="#243a53" stroke-width="1"/>
  </g>
</svg>
