<svg xmlns="http://www.w3.org/2000/svg" width="156" height="156" viewBox="0 0 156 156">
  <g id="Group_637" data-name="Group 637" transform="translate(2053 -8357)">
    <g id="Group_630" data-name="Group 630" transform="translate(-3087 7012)">
      <g id="Ellipse_8" data-name="Ellipse 8" transform="translate(1034 1345)" fill="#dfa91e" stroke="#dfa91e" stroke-width="3">
        <circle cx="78" cy="78" r="78" stroke="none"/>
        <circle cx="78" cy="78" r="76.5" fill="none"/>
      </g>
      <g id="Group_542" data-name="Group 542" transform="translate(-502.978 9.21) rotate(42)">
        <path id="Path_4278" data-name="Path 4278" d="M2118.309-27.035c0-9.887.017-19.774-.016-29.661A5.935,5.935,0,0,1,2119.977-61q11.356-11.949,22.724-23.887a4.953,4.953,0,0,1,7.4-.017c7.7,8.206,15.418,16.4,23.031,24.686a5.417,5.417,0,0,1,1.133,3.369c.083,10.681.049,21.363.047,32.045q0,13.9-.006,27.808c0,2.471-.458,2.925-2.932,2.925q-24.956,0-49.911,0c-2.651,0-3.149-.506-3.149-3.171Q2118.309-12.138,2118.309-27.035Zm52.21,29.107V.792q0-28.531-.034-57.062a3.324,3.324,0,0,0-.814-2.068q-10.93-11.709-21.948-23.335c-1.206-1.279-1.637-1.266-2.887.059q-10.671,11.317-21.354,22.623a4.059,4.059,0,0,0-1.212,3.049q.048,28.4.026,56.8c0,.384.043.768.069,1.218Z" transform="translate(0 0)" fill="#27405d"/>
        <path id="Path_4279" data-name="Path 4279" d="M2180.147,93.77c.022,1.52-.569,2.473-1.905,2.508-3.078.081-4.595,1.543-5,4.574-.213,1.591-1.411,2.112-2.974,1.718l-.128-.035c-1.39-.388-2.925-1.324-4.131-1.009s-2.114,1.884-3.159,2.894c-1.173,1.133-2.037,1.144-3.2.047a7.346,7.346,0,0,1-1.118-1.124c-1.661-2.465-3.86-3.014-6.576-1.991a5.953,5.953,0,0,1-1.686.31,1.966,1.966,0,0,1-2.141-1.4,2.515,2.515,0,0,1-.21-.9c.1-2.908-1.473-4.091-4.182-4.535-2.109-.346-2.645-1.332-1.757-3.316,1.234-2.76.833-4.755-1.635-6.628-1.872-1.42-1.715-2.313-.02-4.012a4.861,4.861,0,0,1,.755-.739c2.48-1.563,2.8-3.755,1.924-6.34a6.09,6.09,0,0,1-.279-1.558c-.082-1.287.527-2.267,1.8-2.294,3.127-.066,4.7-1.513,5.082-4.628.194-1.565,1.415-2.06,3.006-1.639a9.77,9.77,0,0,1,2.022.6c1.8.937,2.973.295,4.27-1.107,2.831-3.059,3.051-3.106,5.833.031,1.711,1.929,3.4,2.648,5.785,1.658a7.843,7.843,0,0,1,1.545-.346c1.831-.347,2.9.28,3.009,2.127.159,2.691,1.256,4.151,4.073,4.531,2.152.29,2.846,1.548,1.936,3.529-1.307,2.844-.754,4.867,1.706,6.725,1.429,1.079,1.291,2.142,0,3.45a25.055,25.055,0,0,1-2.448,2.412,2.51,2.51,0,0,0-.864,3.008C2179.792,91.478,2179.949,92.709,2180.147,93.77ZM2144.1,83.088c.895.774,1.741,1.474,2.55,2.214a2.451,2.451,0,0,1,.732,2.755c-.341,1.082-.579,2.2-.86,3.291,1.45.573,3.209.769,4.088,1.752.914,1.022.977,2.8,1.428,4.308,1.2-.254,2.418-.463,3.608-.778a2.726,2.726,0,0,1,3.07.922c.841,1,1.776,1.911,2.86,3.063,2.039-3.726,4.958-3.982,8.212-2.3.649-1.6.869-3.336,1.856-4.225s2.745-.935,4.274-1.382c-.191-1.184-.33-2.451-.611-3.685a2.869,2.869,0,0,1,1.132-3.137c.917-.739,1.772-1.555,2.875-2.533-3.756-2.023-3.962-4.987-2.3-8.224-1.607-.657-3.353-.88-4.239-1.871s-.917-2.753-1.35-4.274c-1.247.217-2.545.424-3.835.672a2.737,2.737,0,0,1-2.747-.88c-.91-1.005-1.853-1.982-2.966-3.168-2,3.746-4.971,3.93-8.677,2.09.116,4.144-2.052,5.7-5.72,5.511.258,1.609.464,2.952.691,4.292a2.664,2.664,0,0,1-.915,2.607C2146.272,80.993,2145.332,81.92,2144.1,83.088Z" transform="translate(-15.213 -108.307)" fill="#27405d"/>
        <path id="Path_4280" data-name="Path 4280" d="M2199.448-35.575a8.911,8.911,0,0,1,8.929,8.9,8.961,8.961,0,0,1-9.108,9.016,8.959,8.959,0,0,1-8.86-9A8.893,8.893,0,0,1,2199.448-35.575Zm-.011,13.911a4.93,4.93,0,0,0,4.954-4.94,4.932,4.932,0,0,0-5.043-4.983,4.942,4.942,0,0,0-4.956,4.938A4.935,4.935,0,0,0,2199.437-21.664Z" transform="translate(-52.986 -37.457)" fill="#27405d"/>
        <path id="Path_4281" data-name="Path 4281" d="M2192.513,128.585c.3-.45.552-.845.826-1.221q5.5-7.53,11-15.055c1.686-2.308,1.685-2.309,4.848-2.051-.317.458-.569.838-.838,1.206-3.743,5.126-7.592,10.18-11.178,15.413C2195.916,128.708,2194.524,128.986,2192.513,128.585Z" transform="translate(-54.532 -144.522)" fill="#27405d"/>
        <path id="Path_4282" data-name="Path 4282" d="M2232.869,149.284a4.192,4.192,0,1,1-4.074,4.128A4.082,4.082,0,0,1,2232.869,149.284Zm2.013,4.229c-.782-.861-1.217-1.656-1.881-1.981-.638-.312-1.488.879-1.4,1.971.068.882.262,2,1.38,1.834C2233.6,155.247,2234.091,154.311,2234.882,153.513Z" transform="translate(-81.189 -173.279)" fill="#27405d"/>
        <path id="Path_4283" data-name="Path 4283" d="M2197.6,112.758a4.057,4.057,0,0,1-3.965,4.233,4.127,4.127,0,0,1-4.015-4.217,4.172,4.172,0,0,1,3.926-4.188A4.116,4.116,0,0,1,2197.6,112.758Zm-2.245.2c-.812-.827-1.274-1.6-1.945-1.895-.636-.282-1.473.953-1.355,2.015.1.863.27,2.006,1.42,1.78C2194.1,114.737,2194.569,113.8,2195.356,112.96Z" transform="translate(-52.408 -143.376)" fill="#27405d"/>
      </g>
    </g>
  </g>
</svg>
