<svg xmlns="http://www.w3.org/2000/svg" width="156" height="156" viewBox="0 0 156 156">
  <g id="Group_656" data-name="Group 656" transform="translate(-605 -973)">
    <g id="Ellipse_8" data-name="Ellipse 8" transform="translate(605 973)" fill="none" stroke="#dfa91e" stroke-width="3">
      <circle cx="78" cy="78" r="78" stroke="none"/>
      <circle cx="78" cy="78" r="76.5" fill="none"/>
    </g>
    <g id="Group_536" data-name="Group 536" transform="translate(94.653 -239.184)">
      <g id="Group_535" data-name="Group 535" transform="translate(552 1245.623)">
        <path id="Path_4268" data-name="Path 4268" d="M1543.937,599.038c9.576,0,19.153.053,28.729-.041,2.128-.021,3.147.69,3.764,2.754a33.866,33.866,0,0,1-11.116,35.77,5.269,5.269,0,0,1-3.011,1.087q-18.4.111-36.8,0a4.946,4.946,0,0,1-2.84-1.007,33.726,33.726,0,0,1-11.17-36.078c.582-1.908,1.547-2.547,3.514-2.53C1524.652,599.085,1534.295,599.038,1543.937,599.038ZM1513.709,607h2.5q16.534,0,33.066,0a4.256,4.256,0,0,1,1.93.14,2.342,2.342,0,0,1,1.1,1.591c.028.45-.614,1.112-1.117,1.376a4.029,4.029,0,0,1-1.741.117q-17.025.009-34.05.01h-2.026c.005,10.1,3.6,18.254,11.161,24.579a3.3,3.3,0,0,0,1.979.532c11.547.033,23.093.054,34.64-.02a5.179,5.179,0,0,0,2.93-1.121,26.874,26.874,0,0,0,7.424-9.548,28.289,28.289,0,0,0,2.966-14.428h-2.023c-2.821,0-5.642-.011-8.463,0-1.178.006-2.422-.044-2.452-1.566-.033-1.677,1.3-1.685,2.536-1.671.787.009,1.574,0,2.362,0h7.861c-.385-1.724-.707-3.163-1.02-4.567H1514.7Z" transform="translate(-1510.046 -545.933)" fill="#27405c"/>
        <path id="Path_4269" data-name="Path 4269" d="M1558.242,547.586a19.6,19.6,0,0,1,1.247-3.129,40.634,40.634,0,0,1,3.175-4.694c1.2-1.56,2.155-1.613,3.284-.07a44.585,44.585,0,0,1,3.987,6.247,5.684,5.684,0,0,1-1.377,6.644,5.792,5.792,0,0,1-6.533,1.221C1559.635,552.8,1558.394,550.922,1558.242,547.586Zm6.179-5.13a27.246,27.246,0,0,0-2.419,4.795,3.146,3.146,0,0,0,.923,2.773,3.215,3.215,0,0,0,2.978.021,3.174,3.174,0,0,0,.957-2.779C1566.48,545.8,1565.5,544.489,1564.421,542.456Z" transform="translate(-1539.238 -509.329)" fill="#27405c"/>
        <path id="Path_4270" data-name="Path 4270" d="M1596.178,570.28a13.893,13.893,0,0,1,.886-2.224,28.941,28.941,0,0,1,2.257-3.338c.855-1.109,1.532-1.146,2.335-.05a31.739,31.739,0,0,1,2.835,4.441,4.04,4.04,0,0,1-.979,4.724,4.118,4.118,0,0,1-4.644.868C1597.168,573.987,1596.286,572.652,1596.178,570.28Zm4.393-3.647a19.315,19.315,0,0,0-1.72,3.409,2.237,2.237,0,0,0,.656,1.971,2.286,2.286,0,0,0,2.117.015,2.255,2.255,0,0,0,.68-1.976A18.612,18.612,0,0,0,1600.571,566.633Z" transform="translate(-1562.215 -524.654)" fill="#27405c"/>
        <g id="Group_534" data-name="Group 534" transform="translate(29.098 0)">
          <path id="Path_4265" data-name="Path 4265" d="M1595.159,499.245c-.441.142-.8.248-1.149.374a.678.678,0,0,1-.773-.16c-1.517-1.518-3.039-3.031-4.542-4.561a1.1,1.1,0,0,1-.215-.582,4.327,4.327,0,0,1-.008-.688c-.073-.039-.1-.063-.118-.06a1.946,1.946,0,0,1-1.862-.837c-.732-.8-1.53-1.542-2.3-2.312-.473-.473-.47-.749,0-1.222q4-4,7.988-8a3.362,3.362,0,0,0,.357-.559,2.947,2.947,0,0,1,.34-.486q2.339-2.355,4.692-4.7a3.513,3.513,0,0,1,4.177-.7,5.877,5.877,0,0,0,2.906.8,4.378,4.378,0,0,0,3.378-1.683,50.391,50.391,0,0,1,6.074-6.585,13.491,13.491,0,0,1,3.6-2.47,3.727,3.727,0,0,1,2.268-.343,3.14,3.14,0,0,1,2.456,3.7,3.219,3.219,0,0,1-.1.363,10.282,10.282,0,0,1-2.165,3.634,40.853,40.853,0,0,1-6.774,6.394,4.765,4.765,0,0,0-1.47,6.142,5.888,5.888,0,0,1,.58,1.735,3.13,3.13,0,0,1-.922,2.76,56.1,56.1,0,0,1-4.952,4.882c-1.636,1.3-3,2.839-4.5,4.254s-2.93,2.912-4.391,4.372c-.5.5-.749.5-1.25.008s-.976-1-1.484-1.475a.794.794,0,0,1-.206-.978C1594.924,499.953,1595.022,499.636,1595.159,499.245Zm14.575-10.776a1.926,1.926,0,0,0,.688-2.763c-.142-.3-.283-.606-.409-.916a6.366,6.366,0,0,1,1.81-7.252c.639-.531,1.306-1.029,1.938-1.568a37.567,37.567,0,0,0,5.649-5.762,5.5,5.5,0,0,0,1.262-2.524,1.261,1.261,0,0,0-1.061-1.435,1.246,1.246,0,0,0-.385,0,5.151,5.151,0,0,0-1.519.586,19.081,19.081,0,0,0-4.259,3.591c-1.412,1.521-2.736,3.124-4.1,4.692a6.375,6.375,0,0,1-4.079,2.188,6.522,6.522,0,0,1-4.025-.809,1.95,1.95,0,0,0-2.8.673Zm-4.929,5.26-11.7-11.716a2.3,2.3,0,0,1-.237.328c-1.361,1.368-2.708,2.752-4.1,4.085a1.084,1.084,0,0,0-.265,1.357,2.806,2.806,0,0,0,1.54,1.514c1.331.583,2.691,1.1,4.055,1.6,1.666.614,3.367,1.138,5.018,1.789a5.507,5.507,0,0,1,2.9,2.309,8.8,8.8,0,0,1,.45,1.068Zm3.907-4.268-11.238-11.253-2.662,2.662,11.24,11.255Z" transform="translate(-1583.841 -464.424)" fill="#27405c"/>
          <path id="Path_4266" data-name="Path 4266" d="M1672.758,472.221a.671.671,0,0,1-.631-.651.626.626,0,0,1,.617-.609.615.615,0,0,1,.642.587c0,.009,0,.019,0,.029A.645.645,0,0,1,1672.758,472.221Z" transform="translate(-1637.314 -468.383)" fill="#27405c"/>
        </g>
      </g>
    </g>
  </g>
</svg>
