<svg xmlns="http://www.w3.org/2000/svg" xmlns:xlink="http://www.w3.org/1999/xlink" width="37" height="36" viewBox="0 0 37 36">
  <defs>
    <clipPath id="clip-path">
      <rect width="37" height="36" fill="none"/>
    </clipPath>
  </defs>
  <g id="Symbol_10_23" data-name="Symbol 10 – 23" clip-path="url(#clip-path)">
    <path id="Path_4" data-name="Path 4" d="M5.518,5.518A16.7,16.7,0,0,1,18.392,0,16.7,16.7,0,0,1,31.266,5.518a16.7,16.7,0,0,1,5.518,12.874,16.7,16.7,0,0,1-5.518,12.874,16.7,16.7,0,0,1-12.874,5.518A16.7,16.7,0,0,1,5.518,31.266C2.146,27.588,0,23.6,0,18.392A16.7,16.7,0,0,1,5.518,5.518ZM20.844,33.105q1.839,0,4.6-2.759a13.388,13.388,0,0,0,2.146-6.437,5.076,5.076,0,0,0-1.533-3.678,5.4,5.4,0,0,0-3.985-1.839H19a8.95,8.95,0,0,1-2.759-.613,2.783,2.783,0,0,1-.92-2.146,1.593,1.593,0,0,1,.613-1.226,2.324,2.324,0,0,1,1.226-.613,2.092,2.092,0,0,1,1.533.92c.613.307.92.613,1.226.613a1.843,1.843,0,0,0,1.226-.307,1.843,1.843,0,0,0,.307-1.226,4.878,4.878,0,0,0-1.533-3.065A12.679,12.679,0,0,0,21.457,4.9a.659.659,0,0,0-.613-.613,9.476,9.476,0,0,0-2.452-.613c-3.372.307-5.824.92-7.97,2.452a7.717,7.717,0,0,0-2.759,6.131,7.848,7.848,0,0,0,2.452,5.824,8.374,8.374,0,0,0,5.824,2.452h0v1.226a3.935,3.935,0,0,0,1.226,3.065,4.464,4.464,0,0,0,2.759,1.839v5.518c0,.307,0,.307.307.613S20.537,33.105,20.844,33.105Z" fill="#fff"/>
  </g>
</svg>
