<svg xmlns="http://www.w3.org/2000/svg" width="156" height="156" viewBox="0 0 156 156">
  <g id="Group_631" data-name="Group 631" transform="translate(3084 -7985)">
    <g id="Group_624" data-name="Group 624">
      <g id="Group_618" data-name="Group 618" transform="translate(-3272 7012)">
        <g id="Ellipse_9" data-name="Ellipse 9" transform="translate(188 973)" fill="none" stroke="#dfa91e" stroke-width="3">
          <circle cx="78" cy="78" r="78" stroke="none"/>
          <circle cx="78" cy="78" r="76.5" fill="none"/>
        </g>
        <path id="Path_4267" data-name="Path 4267" d="M321.031,625.995c0-8.528-1.275-15.155-3.4-20.533a22.045,22.045,0,0,0,.835-9.037c-.588-6.733-3.282-14.545-7.584-22-7.455-12.914-17.825-21.588-25.805-21.588a9.014,9.014,0,0,0-4.327,1.053c-11.109-9.552-21.925-12.635-28.06-7.8-8.2,6.457-4.215,24.719,9.063,41.578l5.508,6.991a2.25,2.25,0,0,0,3.535-2.785l-3.354-4.257a6,6,0,1,1-5.078,5.923c0-.106.01-.21.016-.315l-2.784-3.535a72.389,72.389,0,0,1-5.66-8.295l-9.673,5.585a1.51,1.51,0,0,1-1.51-2.615l9.724-5.614q-1.21-2.312-2.178-4.6l-11.252,6.5a8.537,8.537,0,0,0-3.888,1.09c-7.493,4.327-6.438,19.71,2.4,35.022,7.152,12.386,17.1,20.71,24.757,20.71a8.637,8.637,0,0,0,4.372-1.118,8.479,8.479,0,0,0,2.913-2.838L306.19,612.39a51.3,51.3,0,0,1,1.639,13.549c0,.018-.005.034-.005.051a3.1,3.1,0,1,0,6.2,0v10.219a3.5,3.5,0,1,0,7,.011h.005Zm-50.915-53.938-9.825,5.672c-.539-.877-1.043-1.746-1.521-2.608l9.836-5.68a1.51,1.51,0,0,1,1.51,2.616Zm6.321-13-19.948,11.517c-4.445-9.921-4.611-18.116-1.011-20.952,4.107-3.237,13.055-.124,21.982,7.39A11.586,11.586,0,0,0,276.437,559.061Zm37.475,39.259c-.018-.026-.033-.053-.051-.08H296.629a28.04,28.04,0,0,0,5.008,3.879,1.751,1.751,0,0,1-1.782,3.014,35.167,35.167,0,0,1-8.075-6.893h-.011a55.046,55.046,0,0,1-6.478-9.038c-7.556-13.088-8.731-26.555-2.622-30.082s17.184,4.225,24.741,17.313C311.982,584.352,314.213,592.408,313.912,598.32Z" transform="translate(-9.17 459.166)" fill="#27405c" stroke="#243a53" stroke-width="1"/>
      </g>
    </g>
  </g>
</svg>
