<?xml version="1.0" encoding="utf-8"?>
<!-- Generator: Adobe Illustrator 24.0.3, SVG Export Plug-In . SVG Version: 6.00 Build 0)  -->
<svg version="1.1" id="Layer_1" xmlns="http://www.w3.org/2000/svg" xmlns:xlink="http://www.w3.org/1999/xlink" x="0px" y="0px"
	 viewBox="0 0 156 156" style="enable-background:new 0 0 156 156;" xml:space="preserve">
<style type="text/css">
	.st0{fill:#27405C;}
</style>
<g id="Group_656" transform="translate(-605 -973)">
	<g id="Group_536" transform="translate(94.653 -239.184)">
		<g id="Group_535" transform="translate(552 1245.623)">
			<path id="Path_4268" class="st0" d="M33.9,53.1c9.6,0,19.2,0.1,28.7,0c2.1,0,3.1,0.7,3.8,2.8c3.8,13.1-0.6,27.2-11.1,35.8
				c-0.9,0.7-1.9,1-3,1.1c-12.3,0.1-24.5,0.1-36.8,0c-1,0-2-0.4-2.8-1C1.9,83-2.5,68.8,1.4,55.6C2,53.7,3,53,5,53.1
				C14.6,53.2,24.2,53.1,33.9,53.1z M3.7,61.1h2.5c11,0,22,0,33.1,0c0.6-0.1,1.3-0.1,1.9,0.1c0.6,0.3,1,0.9,1.1,1.6
				c0,0.5-0.6,1.1-1.1,1.4c-0.6,0.2-1.2,0.2-1.7,0.1c-11.3,0-22.7,0-34.1,0h-2c0,10.1,3.6,18.3,11.2,24.6c0.6,0.4,1.3,0.6,2,0.5
				c11.5,0,23.1,0.1,34.6,0c1.1-0.1,2.1-0.5,2.9-1.1c3.2-2.6,5.7-5.8,7.4-9.5c2.2-4.5,3.3-9.4,3-14.4h-2c-2.8,0-5.6,0-8.5,0
				c-1.2,0-2.4,0-2.5-1.6c0-1.7,1.3-1.7,2.5-1.7c0.8,0,1.6,0,2.4,0h7.9c-0.4-1.7-0.7-3.2-1-4.6H4.7L3.7,61.1z"/>
			<path id="Path_4269" class="st0" d="M19,38.3c0.3-1.1,0.7-2.1,1.2-3.1c0.9-1.6,2-3.2,3.2-4.7c1.2-1.6,2.2-1.6,3.3-0.1
				c1.5,2,2.8,4.1,4,6.2c1.1,2.3,0.5,5-1.4,6.6c-1.7,1.7-4.3,2.2-6.5,1.2C20.4,43.5,19.2,41.6,19,38.3z M25.2,33.1
				c-1,1.5-1.8,3.1-2.4,4.8c-0.2,1,0.2,2.1,0.9,2.8c0.9,0.5,2,0.5,3,0c0.8-0.7,1.1-1.8,1-2.8C27.2,36.5,26.3,35.2,25.2,33.1
				L25.2,33.1z"/>
			<path id="Path_4270" class="st0" d="M34,45.6c0.2-0.8,0.5-1.5,0.9-2.2c0.7-1.2,1.4-2.3,2.3-3.3c0.9-1.1,1.5-1.1,2.3,0
				c1.1,1.4,2,2.9,2.8,4.4c0.8,1.6,0.4,3.5-1,4.7c-1.2,1.2-3.1,1.6-4.6,0.9C35,49.3,34.1,48,34,45.6z M38.4,42
				c-0.7,1.1-1.3,2.2-1.7,3.4c-0.1,0.7,0.1,1.5,0.7,2c0.7,0.4,1.5,0.4,2.1,0c0.5-0.5,0.8-1.2,0.7-2C39.6,44.2,39,43.1,38.4,42
				L38.4,42z"/>
			<g id="Group_534" transform="translate(29.098 0)">
				<path id="Path_4265" class="st0" d="M11.3,34.8c-0.4,0.1-0.8,0.2-1.1,0.4c-0.3,0.1-0.6,0.1-0.8-0.2c-1.5-1.5-3-3-4.5-4.6
					c-0.1-0.2-0.2-0.4-0.2-0.6c0-0.2,0-0.5,0-0.7c-0.1,0-0.1-0.1-0.1-0.1c-0.7,0.1-1.4-0.2-1.9-0.8c-0.7-0.8-1.5-1.5-2.3-2.3
					c-0.5-0.5-0.5-0.7,0-1.2c2.7-2.7,5.3-5.3,8-8c0.1-0.2,0.3-0.4,0.4-0.6C8.8,16,8.9,15.9,9,15.7c1.6-1.6,3.1-3.1,4.7-4.7
					c1.1-1.1,2.8-1.4,4.2-0.7c0.9,0.5,1.9,0.8,2.9,0.8c1.3,0,2.6-0.6,3.4-1.7C26,7.1,28,4.9,30.3,2.9c1.1-1,2.3-1.8,3.6-2.5
					C34.6,0,35.4-0.1,36.1,0c1.7,0.3,2.8,2,2.5,3.7c0,0,0,0,0,0c0,0.1-0.1,0.2-0.1,0.4c-0.5,1.3-1.2,2.6-2.2,3.6
					c-2,2.4-4.3,4.5-6.8,6.4c-2,1.4-2.6,4-1.5,6.1c0.3,0.5,0.5,1.1,0.6,1.7c0.2,1-0.2,2-0.9,2.8c-1.5,1.7-3.2,3.4-5,4.9
					c-1.6,1.3-3,2.8-4.5,4.3s-2.9,2.9-4.4,4.4c-0.5,0.5-0.7,0.5-1.2,0s-1-1-1.5-1.5c-0.3-0.2-0.4-0.6-0.2-1
					C11.1,35.5,11.2,35.2,11.3,34.8z M25.9,24c0.9-0.5,1.3-1.7,0.8-2.6c0-0.1-0.1-0.1-0.1-0.2c-0.1-0.3-0.3-0.6-0.4-0.9
					c-1-2.6-0.3-5.5,1.8-7.3c0.6-0.5,1.3-1,1.9-1.6c2.1-1.7,4-3.6,5.6-5.8c0.6-0.7,1.1-1.6,1.3-2.5c0.1-0.7-0.4-1.3-1.1-1.4
					c0,0,0,0,0,0c-0.1,0-0.3,0-0.4,0c-0.5,0.1-1,0.3-1.5,0.6c-1.6,1-3,2.2-4.3,3.6c-1.4,1.5-2.7,3.1-4.1,4.7c-1,1.2-2.5,2-4.1,2.2
					c-1.4,0.2-2.8-0.1-4-0.8c-0.9-0.6-2.1-0.4-2.7,0.5c0,0-0.1,0.1-0.1,0.2L25.9,24z M21,29.3L9.3,17.6c-0.1,0.1-0.1,0.2-0.2,0.3
					c-1.4,1.4-2.7,2.8-4.1,4.1c-0.4,0.3-0.5,0.9-0.3,1.4C5,24,5.5,24.6,6.2,24.9c1.3,0.6,2.7,1.1,4.1,1.6c1.7,0.6,3.4,1.1,5,1.8
					c1.2,0.4,2.2,1.2,2.9,2.3c0.2,0.3,0.3,0.7,0.4,1.1L21,29.3z M24.9,25L13.6,13.8L11,16.4l11.2,11.3L24.9,25z"/>
				<path id="Path_4266" class="st0" d="M35.4,3.8c-0.3,0-0.6-0.3-0.6-0.7c0-0.3,0.3-0.6,0.6-0.6c0.3,0,0.6,0.2,0.6,0.6c0,0,0,0,0,0
					c0,0,0,0,0,0C36.1,3.5,35.8,3.8,35.4,3.8z"/>
			</g>
		</g>
	</g>
</g>
</svg>
