<svg xmlns="http://www.w3.org/2000/svg" width="156" height="156" viewBox="0 0 156 156">
  <g id="Group_652" data-name="Group 652" transform="translate(-188 -1345)">
    <g id="Ellipse_8" data-name="Ellipse 8" transform="translate(188 1345)" fill="none" stroke="#dfa91e" stroke-width="3">
      <circle cx="78" cy="78" r="78" stroke="none"/>
      <circle cx="78" cy="78" r="76.5" fill="none"/>
    </g>
    <g id="Group_534" data-name="Group 534" transform="translate(2222.022 -430.276)">
      <path id="Path_4265" data-name="Path 4265" d="M-1972.591,1892.011c-.913.295-1.654.514-2.379.775a1.4,1.4,0,0,1-1.6-.332c-3.14-3.142-6.291-6.274-9.4-9.443a2.287,2.287,0,0,1-.445-1.206,9.143,9.143,0,0,1-.017-1.423c-.151-.079-.2-.131-.245-.124-1.686.305-2.786-.565-3.855-1.734-1.516-1.658-3.167-3.192-4.754-4.786-.977-.982-.973-1.548.01-2.533q8.271-8.278,16.537-16.561a6.979,6.979,0,0,0,.74-1.157,6.138,6.138,0,0,1,.7-1.006q4.844-4.875,9.714-9.724a7.274,7.274,0,0,1,8.647-1.448,12.165,12.165,0,0,0,6.016,1.652,9.059,9.059,0,0,0,6.993-3.483,104.36,104.36,0,0,1,12.576-13.633,27.928,27.928,0,0,1,7.443-5.115,7.712,7.712,0,0,1,4.694-.71,6.5,6.5,0,0,1,4.886,8.408,21.271,21.271,0,0,1-4.482,7.523,84.544,84.544,0,0,1-14.023,13.237,9.864,9.864,0,0,0-3.042,12.715,12.184,12.184,0,0,1,1.2,3.59,6.48,6.48,0,0,1-1.909,5.711c-3.359,3.434-6.516,7.139-10.252,10.108-3.387,2.691-6.212,5.878-9.32,8.807s-6.065,6.028-9.09,9.051c-1.033,1.032-1.555,1.038-2.587.017s-2.02-2.065-3.072-3.053a1.644,1.644,0,0,1-.427-2.023C-1973.078,1893.477-1972.875,1892.822-1972.591,1892.011Zm30.174-22.309c2.2-1.68,2.594-3.227,1.424-5.721-.294-.627-.587-1.255-.848-1.9a13.181,13.181,0,0,1,3.747-15.012c1.323-1.1,2.7-2.13,4.012-3.246a77.714,77.714,0,0,0,11.694-11.929,11.409,11.409,0,0,0,2.614-5.221,2.615,2.615,0,0,0-2.993-2.967,10.683,10.683,0,0,0-3.144,1.212,39.533,39.533,0,0,0-8.82,7.435c-2.923,3.149-5.664,6.468-8.482,9.715a13.194,13.194,0,0,1-8.444,4.531,13.5,13.5,0,0,1-8.333-1.675c-2.543-1.347-4.279-.605-5.791,1.393Zm-10.2,10.891-24.226-24.254a4.642,4.642,0,0,1-.488.678c-2.818,2.833-5.606,5.7-8.494,8.458a2.245,2.245,0,0,0-.549,2.81,5.81,5.81,0,0,0,3.188,3.135c2.755,1.208,5.572,2.282,8.4,3.323,3.449,1.271,6.97,2.357,10.388,3.7a11.4,11.4,0,0,1,6.009,4.78,18.2,18.2,0,0,1,.931,2.211Zm8.088-8.837-23.269-23.3-5.512,5.511,23.27,23.3Z" transform="translate(0 0)" fill="#27405c"/>
      <path id="Path_4266" data-name="Path 4266" d="M-1562.9,1854.644a1.388,1.388,0,0,1-1.308-1.349,1.3,1.3,0,0,1,1.276-1.26,1.273,1.273,0,0,1,1.331,1.274A1.335,1.335,0,0,1-1562.9,1854.644Z" transform="translate(-359.751 -26.773)" fill="#27405c"/>
    </g>
  </g>
</svg>
