<?xml version="1.0" encoding="utf-8"?>
<!-- Generator: Adobe Illustrator 24.0.3, SVG Export Plug-In . SVG Version: 6.00 Build 0)  -->
<svg version="1.1" id="Layer_1" xmlns="http://www.w3.org/2000/svg" xmlns:xlink="http://www.w3.org/1999/xlink" x="0px" y="0px"
	 viewBox="0 0 156 156" style="enable-background:new 0 0 156 156;" xml:space="preserve">
<style type="text/css">
	.st0{fill:#27405C;stroke:#243A53;}
</style>
<g id="Group_657" transform="translate(-188 -973)">
	<path id="Path_4267" class="st0" d="M302,1077.7c0.1-5.5-0.8-10.9-2.7-16.1c0.7-2.3,0.9-4.7,0.7-7.1c-0.7-6.1-2.8-12-5.9-17.2
		c-5.8-10.1-13.9-16.9-20.2-16.9c-1.2,0-2.3,0.3-3.4,0.8c-8.7-7.5-17.2-9.9-22-6.1c-6.4,5.1-3.3,19.3,7.1,32.5l4.3,5.5
		c0.6,0.8,1.7,0.9,2.5,0.3c0.8-0.6,0.9-1.7,0.3-2.5l0,0l-2.6-3.3c2.6-0.4,5,1.4,5.4,3.9c0.4,2.6-1.4,5-3.9,5.4
		c-2.6,0.4-5-1.4-5.4-3.9c0-0.2-0.1-0.5-0.1-0.7c0-0.1,0-0.2,0-0.2l-2.2-2.8c-1.6-2.1-3.1-4.2-4.4-6.5l-7.6,4.4
		c-0.6,0.3-1.3,0.1-1.6-0.4c-0.3-0.6-0.1-1.3,0.4-1.6l7.6-4.4c-0.6-1.2-1.2-2.4-1.7-3.6l-8.8,5.1c-1.1,0-2.1,0.3-3,0.9
		c-5.9,3.4-5,15.4,1.9,27.4c5.6,9.7,13.4,16.2,19.4,16.2c1.2,0,2.4-0.3,3.4-0.9c0.9-0.5,1.7-1.3,2.3-2.2l28.6-16.5
		c0.9,3.5,1.3,7,1.3,10.6c0,0,0,0,0,0c0,1.3,1,2.4,2.4,2.5s2.4-1,2.5-2.4c0,0,0-0.1,0-0.1v8c0,1.5,1.2,2.7,2.7,2.7
		c1.5,0,2.7-1.2,2.7-2.7l0,0L302,1077.7z M262.1,1035.5l-7.7,4.4c-0.4-0.7-0.8-1.4-1.2-2l7.7-4.4c0.6-0.3,1.3-0.1,1.6,0.4
		C262.9,1034.5,262.7,1035.2,262.1,1035.5L262.1,1035.5z M267.1,1025.3l-15.6,9c-3.5-7.8-3.6-14.2-0.8-16.4
		c3.2-2.5,10.2-0.1,17.2,5.8C267.6,1024.3,267.3,1024.8,267.1,1025.3L267.1,1025.3z M296.4,1056.1
		C296.4,1056,296.4,1056,296.4,1056.1l-13.5-0.1c1.2,1.2,2.5,2.2,3.9,3c0.6,0.4,0.8,1.2,0.4,1.9c-0.4,0.6-1.2,0.8-1.8,0.5
		c-2.4-1.5-4.5-3.3-6.3-5.4h0c-1.9-2.2-3.6-4.5-5.1-7.1c-5.9-10.2-6.8-20.8-2.1-23.5s13.4,3.3,19.4,13.5
		C294.9,1045.1,296.6,1051.4,296.4,1056.1z"/>
</g>
</svg>
