<svg id="Layer_1" data-name="Layer 1" xmlns="http://www.w3.org/2000/svg" viewBox="0 0 156 156"><defs><style>.cls-1{fill:#fff;}</style></defs><path class="cls-1" d="M47.09,88.55c0-7.61-3.5-12.68-9.47-15.82a13.73,13.73,0,0,0-16.54,2.93c-1.67,1.73-3.2,3.62-4.92,5.58C5.13,69.6.22,55.92,3.1,39.88,6.3,22,16.3,9.93,32.68,5.16,47.75.77,60.9,5.71,72.31,16.91,61.16,28.94,50.15,40.82,39,52.8c.57.67.94,1.14,1.34,1.57,2.92,3.13,5.81,6.29,8.77,9.38a16.72,16.72,0,0,0,24.75,0c4.76-5,9.42-10.16,14.14-15.22,4.08-4.38,9.49-4.5,13.59-.19Q118.83,66.4,136,84.59a8.76,8.76,0,0,1-2.45,13.92c-3,1.38-6.08.67-8.61-2.05Q112.6,83.2,100.35,69.91c-.72-.78-1.38-1.63-2-2.33l-6.19,6.73c1.18,1.07,2.63,2.21,3.87,3.56,7.25,7.87,14.45,15.8,21.69,23.68,2.46,2.68,4,5.61,3.08,9.56-1.57,6.65-8.74,8.94-13.25,4.11C99,106,90.51,96.79,82,87.56a14.28,14.28,0,0,1-1-1.38c-2.1,2.27-4,4.27-5.94,6.39l7,7.7q9.27,10.2,18.55,20.38a7.59,7.59,0,0,1,1.6,7.75,7.74,7.74,0,0,1-5.63,5.72,2.47,2.47,0,0,1-.67,0c0-5-1.29-9.48-4.67-13.08a15.22,15.22,0,0,0-12.32-4.73c-1.94-10-7.54-15.07-17.06-14.91C60.22,92.76,55.05,88.87,47.09,88.55Z"/><path class="cls-1" d="M50.48,52.48c4.69-4.9,9.44-9.76,14.08-14.74,6.37-6.84,12.62-13.81,19-20.64,8.17-8.76,18.11-13.25,29.59-13.46,19.18-.34,36.42,15,39.81,35.4,2.43,14.6-.93,27.51-10.09,38.62-.29.34-.6.67-.9,1-.12.13-.26.22-.68.58-1.56-1.78-3.11-3.62-4.74-5.38Q121.95,58,107.31,42.22c-7-7.55-17.73-7.62-24.77-.13C77.92,47,73.37,52,68.78,57c-4.34,4.68-9.81,4.74-14.23.11C53.28,55.75,52.09,54.31,50.48,52.48Z"/><path class="cls-1" d="M20,106.87a6.63,6.63,0,0,1-6.1-4.16A7.48,7.48,0,0,1,14.49,95a34.87,34.87,0,0,1,3-3.61q4.56-5,9.15-9.94c3-3.28,7.17-3.33,10.1-.15A7.75,7.75,0,0,1,36.6,92c-3.88,4.23-7.8,8.42-11.7,12.63A6,6,0,0,1,20,106.87Z"/><path class="cls-1" d="M69.52,152.75a7.38,7.38,0,0,1-7.12-9.38,6,6,0,0,1,1.33-2.32c3.53-3.79,7.11-7.52,10.67-11.29a21.62,21.62,0,0,0,1.75-2.06c2.49-3.38,6.43-3.86,9.55-1.12a7.72,7.72,0,0,1,1,10.6c-1.59,2-3.4,3.75-5.12,5.62-2.37,2.56-4.75,5.11-7.12,7.68A6.15,6.15,0,0,1,69.52,152.75Z"/><path class="cls-1" d="M35.23,123.72a7.84,7.84,0,0,1-6.93-9.79,4.76,4.76,0,0,1,1.11-1.84c4.65-5,9.38-10,14-15.11a4.39,4.39,0,0,1,2.9-1.61,6.87,6.87,0,0,1,6.87,4c1.33,2.85,1.3,5.84-.73,8.18-4.21,4.85-8.59,9.53-13.07,14.1C38.31,122.72,36.62,123.05,35.23,123.72Z"/><path class="cls-1" d="M52.28,138.44a7.9,7.9,0,0,1-7.05-9.18,6.41,6.41,0,0,1,1.53-3c3.42-3.81,7-7.51,10.43-11.26a20.26,20.26,0,0,0,1.64-1.94c2.46-3.33,6.47-3.81,9.54-1.12s3.61,7.47,1,10.44c-4.18,4.8-8.55,9.43-13,13.94C55.35,137.42,53.67,137.76,52.28,138.44Z"/></svg>