<?xml version="1.0" encoding="utf-8"?>
<!-- Generator: Adobe Illustrator 24.0.3, SVG Export Plug-In . SVG Version: 6.00 Build 0)  -->
<svg version="1.1" id="Layer_1" xmlns="http://www.w3.org/2000/svg" xmlns:xlink="http://www.w3.org/1999/xlink" x="0px" y="0px"
	 viewBox="0 0 156 156" style="enable-background:new 0 0 156 156;" xml:space="preserve">
<style type="text/css">
	.st0{fill:#27405C;}
	.st1{fill:none;}
	.st2{fill:#27405C;stroke:#27405C;}
</style>
<g id="Group_655" transform="translate(-1034 -973)">
	<g id="Group_651" transform="translate(8 5.588)">
		<g id="Group_537" transform="translate(1073 1012)">
			<path id="Path_4271" class="st0" d="M39.2,70.4H23.7c-1.3-0.1-2.7-0.2-4-0.4c-5.1-0.6-10.3-1-15.4-1.9c-3.4-0.6-3.9-1.5-3.9-4.9
				c0-18.7,0-37.5,0-56.2c0-2.9,0.5-3.8,3.3-4.5c3.3-0.8,6.6-1.3,10-1.6c11.9-1.1,23.8-1.1,35.6,0c3.4,0.3,6.8,0.9,10.2,1.7
				c2.7,0.6,3.1,1.5,3.1,4.2c0,1.3-0.1,2.6,0,3.9c0,0.7,0.3,1.4,0.7,2c5,5.4,9.2,11.2,11,18.5v4.1c-0.9,2.7-2,5.2-4.5,6.8
				c-2.2,1.3-4.6,2.3-6.8,3.4l-0.4-0.4v2c0,5.4,0,10.8,0,16.3c0,3.2-0.5,4.1-3.6,4.8c-3.4,0.7-6.8,1.1-10.2,1.5
				C45.6,70,42.4,70.2,39.2,70.4z M9.9,9.9L3.8,8.8v51.4c0,4.5,0,4.5,4.5,5.1c12.1,1.5,24.4,1.8,36.5,1c4.1-0.2,8.1-0.9,12.1-1.3
				c1.6-0.2,2.4-0.7,2.3-2.7c-0.2-5.2-0.1-10.4-0.1-15.5c0-0.6-0.1-1.2-0.1-1.8c-6.4-1.4-11.5-5-15.9-9.4c-3.4-3.4-6.5-7.1-9.6-10.7
				c-0.7-1-1.7-1.7-2.9-1.9c-2.2-0.4-3.7-2.4-3.3-4.6c0-0.1,0-0.1,0-0.2c0.3-2.1,2.2-3.6,4.3-3.5c2.2,0.1,4.2,1.9,3.8,4.1
				c-0.4,2.1,0.7,3.3,1.8,4.7c1.1,1.3,2.1,2.7,3.3,4c4.2,4.8,8.7,9.3,14.5,12.2c1.3,0.6,2.7,1.1,4.1,1.5V8.9
				c-13.4,2.4-26.9,2.2-40.6,1.8c0,3.2,0,6.4,0,9.5c0,1.3,0.1,2.9-1.8,2.9c-1.8,0-1.7-1.6-1.7-2.9c0-2.8,0-5.5,0-8.3
				c0-1.2-0.4-1.8-1.8-1.3v2c0,9.9,0,19.7,0,29.6c0,0.6,0.2,1.2-0.1,1.6c-0.4,0.6-1.1,1.3-1.6,1.3s-1.3-0.8-1.6-1.4
				c-0.2-0.6-0.2-1.2-0.1-1.8c0-9.9,0-19.8,0-29.8L9.9,9.9z M62.8,17.7v23.4c5.1-0.9,8.3-4.4,7.8-8.6C69.8,26.8,66.4,22.5,62.8,17.7
				L62.8,17.7z M55,5.5c-15.7-2.1-31.6-2.1-47.2,0C23.5,7.7,39.4,7.7,55,5.5L55,5.5z"/>
			<rect id="Rectangle_1109" y="0.4" class="st1" width="74" height="70"/>
		</g>
		<g id="Group_539" transform="translate(1092.424 1047.084)">
			<path id="Path_4275" class="st2" d="M18.8,26.2c-0.2,0.8-0.4,1.5-0.6,2.2c-0.1,0.2-0.3,0.6-0.5,0.6s-0.5-0.2-0.7-0.4
				c-0.7-1.2-1.4-2.5-2.2-3.7c-0.2-0.2-0.3-0.3-0.6-0.4c-0.5-0.2-1-0.4-1.5-0.7c-0.3-0.2-0.8-0.2-1.1,0c-0.5,0.3-1.1,0.4-1.7,0.7
				c-0.2,0.1-0.3,0.2-0.4,0.4C9,26,8.3,27.2,7.6,28.4c-0.2,0.3-0.5,0.5-0.8,0.6c-0.2-0.2-0.4-0.5-0.5-0.8c-0.2-0.7-0.4-1.3-0.6-2.1
				c-0.8,0.2-1.5,0.4-2.2,0.6c-0.2,0.1-0.6,0-0.7-0.1c-0.1-0.3-0.1-0.5,0-0.8c0.7-1.3,1.5-2.6,2.3-3.9c0.4-0.7,0.2-1-0.5-1.1
				c-1.9-0.4-1.9-0.4-1.9-2.3c0-0.4-0.2-0.7-0.5-0.9c-1.6-0.9-1.7-1-1-2.7c0.2-0.4,0.1-0.8-0.2-1.1c-1.2-1.4-1.2-1.4,0-2.9
				c0.3-0.3,0.4-0.7,0.2-1.1c-0.6-1.8-0.6-1.8,1-2.8C2.5,6.8,2.7,6.4,2.6,6c0-2.1,0-1.9,1.9-2.3c0.4,0,0.7-0.3,0.7-0.6
				C6,1.2,5.9,1.2,8,1.6c0.3,0,0.6-0.1,0.8-0.3c1.4-1.6,1.3-1.6,3.1-0.5c0.3,0.1,0.5,0.1,0.8,0c0.4-0.2,0.7-0.4,1.1-0.6
				c0.4-0.3,0.9-0.2,1.2,0.2c0,0,0,0.1,0.1,0.1c0.5,1,1.7,1.5,2.8,1c0.4-0.2,0.9,0,1.1,0.5c0,0.1,0,0.1,0,0.2C19,3.2,19.9,4,21,3.9
				c0.5,0,0.9,0.4,0.9,0.9c0,0.1,0,0.1,0,0.2c-0.3,1.1,0.4,2.1,1.4,2.5c0.4,0.1,0.7,0.6,0.5,1.1c0,0.1-0.1,0.1-0.1,0.2
				c-0.6,0.9-0.4,2.1,0.5,2.8c0.4,0.3,0.5,0.9,0.2,1.2c0,0.1-0.1,0.1-0.2,0.2c-0.9,0.7-1.1,1.9-0.5,2.8c0.3,0.4,0.1,0.9-0.3,1.2
				c-0.1,0-0.1,0.1-0.2,0.1c-1,0.3-1.6,1.3-1.4,2.4c0.1,0.7-0.3,1.1-1,1.2c-0.3,0-0.6,0.1-0.9,0.2c-0.8,0.1-1,0.5-0.5,1.2
				c0.7,1.3,1.5,2.5,2.2,3.8c0.1,0.3,0.1,0.6,0.2,0.9c-0.3,0.1-0.6,0.1-0.9,0.1C20.2,26.6,19.6,26.4,18.8,26.2z M17.9,2.4
				c-0.3,0-0.6,0.1-1,0.2c-0.8,0.3-1.7,0-2.1-0.8c-0.7-0.9-0.5-0.8-1.5-0.2c-0.6,0.5-1.4,0.5-2,0.1C10.3,1,10.3,1,9.5,2
				C9.2,2.6,8.5,2.8,7.8,2.6C7.4,2.5,7,2.5,6.7,2.4C6.5,2.8,6.3,3.2,6.2,3.6C6,4.2,5.5,4.7,4.9,4.7C3.7,4.9,3.6,4.9,3.6,6.2
				c0.1,0.6-0.3,1.3-0.9,1.5c-0.4,0.2-0.7,0.4-1,0.6C2.1,9,2.2,9.7,2.2,10.4c-0.1,0.7-0.8,1.2-1.2,1.8c0.1,0.2,0.3,0.4,0.5,0.6
				c0.8,0.6,1,1.6,0.4,2.4c-0.4,0.6-0.1,1,0.5,1.3c0.8,0.3,1.3,1.1,1.2,1.9c-0.1,1.2-0.2,1,1.1,1.2c0.7,0,1.3,0.5,1.5,1.2
				c0.4,1.1,0.4,1.2,1.6,0.9c0.6-0.2,1.3,0.1,1.7,0.6c0.2,0.3,0.5,0.6,0.8,1c1.2-1.3,2.5-1.2,3.8,0c0.2-0.2,0.4-0.5,0.6-0.7
				c0.4-0.8,1.4-1.2,2.3-0.8c0.7,0.2,1,0,1.1-0.6c0.1-0.9,0.8-1.5,1.7-1.6c1.2-0.1,1,0,1-1.2c-0.1-0.7,0.3-1.5,1-1.8
				c1-0.5,1-0.6,0.6-1.7c-0.3-0.6-0.2-1.4,0.3-1.9c0.3-0.3,0.5-0.6,0.8-1c-1.5-1-1.6-2.3-0.7-3.7c-0.4-0.3-0.7-0.5-1.1-0.6
				c-0.6-0.3-1-0.9-0.9-1.6c0-1.2,0-1.2-1.2-1.4c-0.7,0-1.2-0.5-1.4-1.2C18.2,3.2,18,2.8,17.9,2.4L17.9,2.4z M5.7,23l-1.4,2.4
				c0.6-0.1,1.1-0.2,1.5-0.4c0.3-0.1,0.7,0,0.8,0.3c0,0.1,0,0.1,0.1,0.2C6.8,26,6.9,26.4,7.1,27c0.7-1.2,1.3-2.2,1.9-3.2
				c0.2-0.3-0.3-1-0.8-0.9c-0.3,0-0.6,0.1-0.9,0.1C6.8,23,6.3,23,5.7,23z M18.8,22.9c-0.6,0-1.2,0-1.8,0c-0.7-0.1-1.2-0.1-1.5,0.7
				l2,3.4c0.2-0.6,0.3-1,0.4-1.4c0.1-0.5,0.4-0.8,1-0.6c0.4,0.1,0.9,0.2,1.4,0.4L18.8,22.9z"/>
			<path id="Path_4276" class="st2" d="M12.2,20.9c-4.8,0-8.6-3.9-8.6-8.7s3.9-8.6,8.7-8.6c4.7,0,8.6,3.8,8.6,8.6
				C20.9,16.9,17.1,20.8,12.2,20.9C12.3,20.9,12.3,20.9,12.2,20.9z M19.9,12.3c0-4.2-3.4-7.7-7.6-7.7c-4.2,0-7.7,3.4-7.7,7.6
				c0,4.2,3.4,7.7,7.6,7.7C16.4,20,19.9,16.6,19.9,12.3C19.9,12.3,19.9,12.3,19.9,12.3L19.9,12.3z"/>
			<path id="Path_4277" class="st2" d="M8.9,15.9c0.1-0.4,0.1-1,0.3-1.6c0.1-0.5,0-0.9-0.4-1.2c-0.5-0.4-0.9-0.8-1.3-1.2
				c-0.5-0.6-0.4-1.2,0.4-1.4c0.7-0.2,1.3-0.2,2-0.4c0.3-0.1,0.5-0.3,0.7-0.5c0.3-0.6,0.6-1.2,0.9-1.7c0.5-0.8,1-0.8,1.5,0
				c0.3,0.6,0.6,1.2,0.9,1.7c0.2,0.2,0.4,0.4,0.7,0.5c0.6,0.1,1.3,0.2,1.9,0.3c0.9,0.2,1.1,0.8,0.5,1.5c-0.4,0.5-0.9,0.9-1.4,1.4
				c-0.2,0.2-0.3,0.5-0.2,0.8c0.1,0.6,0.2,1.2,0.3,1.8c0.1,1.1-0.3,1.5-1.4,1c-0.5-0.2-1-0.6-1.6-0.8c-0.3-0.1-0.6-0.1-0.9,0
				c-0.6,0.2-1.2,0.6-1.8,0.9C9.3,17.3,8.8,17,8.9,15.9z M12.2,8.6c-0.3,0.6-0.5,1-0.7,1.5c-0.2,0.6-0.8,1.1-1.5,1.1
				c-0.5,0-1,0.1-1.6,0.2c0.5,0.4,0.8,0.8,1.2,1.1c0.5,0.4,0.8,1.1,0.6,1.8c-0.1,0.5-0.2,1-0.3,1.6c0.5-0.2,0.9-0.5,1.3-0.7
				c0.6-0.5,1.4-0.5,2.1,0c0.4,0.3,0.8,0.4,1.3,0.7c-0.1-0.5-0.2-1-0.3-1.5c-0.2-0.7,0-1.5,0.6-1.9c0.4-0.3,0.7-0.6,1.1-1.1
				c-0.8-0.1-1.3-0.2-1.9-0.3c-0.5,0-0.9-0.3-1.1-0.8C12.8,9.8,12.6,9.3,12.2,8.6z"/>
		</g>
	</g>
</g>
</svg>
