<?xml version="1.0" encoding="utf-8"?>
<!-- Generator: Adobe Illustrator 24.0.3, SVG Export Plug-In . SVG Version: 6.00 Build 0)  -->
<svg version="1.1" id="Layer_1" xmlns="http://www.w3.org/2000/svg" xmlns:xlink="http://www.w3.org/1999/xlink" x="0px" y="0px"
	 viewBox="0 0 156 156" style="enable-background:new 0 0 156 156;" xml:space="preserve">
<style type="text/css">
	.st0{fill:none;}
	.st1{fill:none;stroke:#DFA91E;stroke-width:3;}
	.st2{fill:#27405C;}
</style>
<g id="Group_653" transform="translate(-605 -1345)">
	<g id="Ellipse_8" transform="translate(605 1345)">
		<circle class="st0" cx="1131.8" cy="394.7" r="78"/>
		<circle class="st1" cx="1131.8" cy="394.7" r="76.5"/>
	</g>
	<g id="Group_538" transform="translate(-773.355 1486.366)">
		<path id="Path_4273" class="st2" d="M1502.3-75.1c-3.2,3.3-6.4,6.5-9.6,9.8c-0.6,0.6-0.9,1.5-1,2.3c-0.1,4.8,0,9.7-0.1,14.5
			c0,1-0.3,1.9-0.9,2.7c-4.2,5.4-8.6,10.7-12.8,16.1c-0.8,1.1-2.1,1.8-3.5,1.7c-16.8,0-33.7,0-50.5,0c-2.3,0-2.8-0.5-2.8-2.9
			c0-11.5,0-23,0-34.8c-1.3,0.7-2.7,1.4-4.1,2c-0.8,0.3-1.7,0.2-2.4-0.2c-0.4-0.7-0.5-1.5-0.1-2.2c2.1-4.5,4.4-8.9,6.6-13.3
			c0.4-0.6,0.8-1.1,1.4-1.6c5.7-4.4,11.3-8.8,17.1-13.1c0.8-0.6,1.7-0.9,2.7-0.9c15.5-0.1,31.1,0,46.6-0.1c1.2-0.1,2.4,0.5,3,1.7
			c3.4,5.8,6.9,11.5,10.4,17.2L1502.3-75.1z M1474-31.6v-45.6h-49.2v45.6L1474-31.6z M1485.7-91.5h-2.6c-12.5,0-24.9,0.1-37.4-0.1
			c-2.5-0.1-4.9,0.7-6.7,2.3c-3.4,2.8-6.9,5.4-10.6,8.2c0.3,0.1,0.6,0.1,0.9,0.2c15,0,29.9,0,44.9,0c0.6,0,1.2-0.3,1.7-0.7
			C1479-84.8,1482.1-88,1485.7-91.5L1485.7-91.5z M1478.1-78.7l8.6,14.2l11.6-11.6l-8.6-14.2L1478.1-78.7z M1477.7-34.8
			c3.6-4.5,6.9-8.6,10.2-12.8c0.2-0.3,0.3-0.7,0.3-1.1c0-3.9,0-7.8,0-11.7c-2.2,0.9-2.5,0.8-3.7-1.2c-1.7-2.7-3.3-5.5-4.9-8.2
			c-0.5-0.9-1.1-1.7-1.9-3L1477.7-34.8z"/>
		<path id="Path_4274" class="st2" d="M1449.3-66.8c-2.8,0-5.6,0-8.4,0c-1.2,0-2.1-0.4-2.2-1.7c0-1.4,0.9-1.9,2.2-1.8
			c5.6,0,11.2-0.1,16.8,0.1c0.9,0.1,1.7,0.8,2.1,1.6c0.2,1.3-0.9,1.8-2.2,1.8C1454.9-66.9,1452.1-66.8,1449.3-66.8z"/>
	</g>
</g>
</svg>
