<svg xmlns="http://www.w3.org/2000/svg" width="156" height="156" viewBox="0 0 156 156">
  <g id="Group_635" data-name="Group 635" transform="translate(2238 -7985)">
    <g id="Group_622" data-name="Group 622" transform="translate(-3272 7012)">
      <g id="Ellipse_8" data-name="Ellipse 8" transform="translate(1034 973)" fill="none" stroke="#dfa91e" stroke-width="3">
        <circle cx="78" cy="78" r="78" stroke="none"/>
        <circle cx="78" cy="78" r="76.5" fill="none"/>
      </g>
      <g id="Group_537" data-name="Group 537" transform="translate(-638.851 507.717)">
        <path id="Path_4271" data-name="Path 4271" d="M1760.842,591.817h-19.2c-1.657-.15-3.319-.263-4.971-.456-6.342-.74-12.718-1.278-19.007-2.34-4.205-.711-4.82-1.91-4.82-6.069q0-34.729,0-69.46c0-3.565.629-4.746,4.079-5.533a93.013,93.013,0,0,1,12.373-1.995,247.461,247.461,0,0,1,44.047.008,91.8,91.8,0,0,1,12.584,2.078c3.34.777,3.837,1.8,3.847,5.205,0,1.6-.1,3.207.042,4.795a4.329,4.329,0,0,0,.9,2.419c6.121,6.7,11.4,13.872,13.551,22.907V548.4c-1.066,3.309-2.5,6.477-5.557,8.343-2.682,1.635-5.628,2.836-8.457,4.229l-.475-.453v2.47q0,10.052,0,20.105c0,3.972-.609,5.046-4.505,5.876-4.155.885-8.4,1.418-12.622,1.9C1768.73,591.328,1764.78,591.514,1760.842,591.817Zm-36.2-74.8-7.561-1.3v63.472c0,5.538,0,5.518,5.544,6.254a239.189,239.189,0,0,0,45.148,1.2c5-.284,9.977-1.1,14.966-1.663,1.98-.222,2.951-.908,2.866-3.287-.227-6.388-.074-12.79-.082-19.186,0-.736-.066-1.472-.1-2.277-7.926-1.712-14.19-6.145-19.705-11.589-4.214-4.159-7.994-8.763-11.874-13.249-1.011-1.169-1.833-2.108-3.587-2.326-2.811-.348-4.446-3.049-4.037-5.934a5.086,5.086,0,0,1,5.3-4.349c2.675.13,5.132,2.4,4.676,5.121-.439,2.616.818,4.14,2.18,5.831,1.338,1.66,2.656,3.339,4.074,4.929,5.238,5.874,10.733,11.466,17.9,15.026a51.925,51.925,0,0,0,5.09,1.9V515.751c-16.6,2.906-33.242,2.747-50.161,2.166,0,4-.011,7.863.005,11.724.007,1.653.073,3.556-2.166,3.523-2.268-.034-2.057-2-2.058-3.61,0-3.427-.044-6.854.02-10.279.028-1.5-.434-2.167-2.209-1.665v2.421q0,18.275,0,36.549c0,.684.207,1.524-.11,2.016-.469.728-1.32,1.663-2.013,1.666-.676,0-1.555-.94-1.974-1.678a4.993,4.993,0,0,1-.121-2.246q-.006-18.388,0-36.777Zm65.324,9.674v28.9c6.323-1.093,10.3-5.391,9.613-10.606C1798.651,537.921,1794.39,532.555,1789.965,526.686Zm-9.565-15.034a218.377,218.377,0,0,0-58.346.026A218.413,218.413,0,0,0,1780.4,511.652Z" transform="translate(-0.538 -0.534)" fill="#27405c"/>
        <rect id="Rectangle_1109" data-name="Rectangle 1109" width="92" height="87" transform="translate(1711.851 504.283)" fill="none"/>
      </g>
      <g id="Group_539" data-name="Group 539" transform="translate(-583.574 911.392)">
        <path id="Path_4275" data-name="Path 4275" d="M1703.8,176.286c-.256.953-.458,1.844-.747,2.707-.1.3-.389.71-.638.745s-.65-.278-.812-.544c-.923-1.519-1.781-3.078-2.7-4.6a1.588,1.588,0,0,0-.691-.442c-.607-.289-1.258-.5-1.83-.845a1.2,1.2,0,0,0-1.356.006c-.65.347-1.384.533-2.064.828a1.129,1.129,0,0,0-.461.462c-.862,1.465-1.685,2.953-2.576,4.4a3.886,3.886,0,0,1-.941.785,4.375,4.375,0,0,1-.654-.961c-.281-.809-.471-1.65-.715-2.538-.955.255-1.853.527-2.767.721-.29.061-.789.015-.9-.161a1.15,1.15,0,0,1,.033-.979c.918-1.643,1.895-3.254,2.843-4.88.487-.835.3-1.237-.65-1.419-2.354-.452-2.371-.452-2.363-2.859a1.112,1.112,0,0,0-.653-1.1c-2.031-1.169-2.041-1.191-1.254-3.356a1.243,1.243,0,0,0-.229-1.41c-1.481-1.76-1.475-1.786.01-3.576a1.205,1.205,0,0,0,.241-1.34c-.786-2.223-.775-2.247,1.248-3.414a1.115,1.115,0,0,0,.634-1.117c-.012-2.606.046-2.39,2.389-2.829a1.074,1.074,0,0,0,.924-.794c.857-2.343.725-2.287,3.271-1.883a1.254,1.254,0,0,0,.983-.342c1.753-2.034,1.57-1.927,3.849-.672a1.351,1.351,0,0,0,.985,0,8.925,8.925,0,0,0,1.309-.706,1.037,1.037,0,0,1,1.523.287,2.624,2.624,0,0,0,3.4,1.255,1.017,1.017,0,0,1,1.374.829,2.6,2.6,0,0,0,2.726,2.3,1.06,1.06,0,0,1,1.04,1.309,2.549,2.549,0,0,0,1.744,3.031,1.051,1.051,0,0,1,.557,1.571,2.556,2.556,0,0,0,.6,3.45,1.092,1.092,0,0,1,0,1.734,2.56,2.56,0,0,0-.592,3.454,1.06,1.06,0,0,1-.568,1.571,2.492,2.492,0,0,0-1.733,2.953c.131.825-.368,1.315-1.2,1.445-.361.056-.718.142-1.079.206-1.03.183-1.209.578-.668,1.509.907,1.56,1.838,3.106,2.715,4.682a3.373,3.373,0,0,1,.19,1.07,3.813,3.813,0,0,1-1.136.135C1705.569,176.8,1704.745,176.535,1703.8,176.286Zm-1.162-29.347a8.388,8.388,0,0,0-1.191.191,2.149,2.149,0,0,1-2.564-.944c-.9-1.157-.59-1.035-1.838-.3a2.092,2.092,0,0,1-2.456.127c-1.251-.794-1.32-.762-2.252.406a1.838,1.838,0,0,1-2.118.752,13.2,13.2,0,0,0-1.429-.233,15.353,15.353,0,0,0-.57,1.486,1.766,1.766,0,0,1-1.623,1.35c-1.518.25-1.557.279-1.523,1.822a1.832,1.832,0,0,1-1.085,1.893c-.44.217-.846.506-1.243.747a7.012,7.012,0,0,1,.592,2.6c-.151.816-.928,1.516-1.443,2.285a6.169,6.169,0,0,0,.593.735,2.225,2.225,0,0,1,.519,3.016c-.438.77-.176,1.23.594,1.547a2.171,2.171,0,0,1,1.488,2.369c-.081,1.542-.193,1.26,1.3,1.513a2.052,2.052,0,0,1,1.88,1.486c.45,1.416.517,1.458,1.988,1.148a1.853,1.853,0,0,1,2.1.8c.275.377.608.712,1.032,1.2,1.522-1.6,3.127-1.457,4.68-.038a8.213,8.213,0,0,0,.748-.871,2.16,2.16,0,0,1,2.817-1c.8.289,1.212.008,1.387-.8a2.224,2.224,0,0,1,2.1-1.957c1.488-.186,1.254.018,1.229-1.485a2.157,2.157,0,0,1,1.195-2.235c1.228-.651,1.244-.723.723-2.042a1.951,1.951,0,0,1,.424-2.353,14.6,14.6,0,0,0,.981-1.209c-1.883-1.24-1.969-2.853-.859-4.631-.506-.311-.887-.591-1.305-.793a1.926,1.926,0,0,1-1.156-2.013c.039-1.477-.007-1.514-1.433-1.728a1.849,1.849,0,0,1-1.735-1.43A14.2,14.2,0,0,0,1702.641,146.939Zm-15.056,25.43-1.726,2.956c.737-.184,1.318-.308,1.885-.475a.743.743,0,0,1,1.057.6c.163.583.329,1.166.538,1.9.832-1.439,1.587-2.717,2.311-4.014.234-.418-.425-1.206-.96-1.159-.389.034-.771.161-1.16.184C1688.96,172.394,1688.385,172.37,1687.585,172.37Zm16.207-.074a12.531,12.531,0,0,1-2.235-.026c-.881-.171-1.538-.081-1.908.874l2.442,4.213c.2-.69.374-1.226.5-1.774.153-.674.5-.927,1.188-.707.531.17,1.081.277,1.79.454Z" fill="#27405c" stroke="#27405c" stroke-width="1"/>
        <path id="Path_4276" data-name="Path 4276" d="M1719.486,193.326a10.684,10.684,0,1,1,10.715-10.744A10.694,10.694,0,0,1,1719.486,193.326Zm9.516-10.6a9.486,9.486,0,1,0-9.562,9.424A9.459,9.459,0,0,0,1729,182.726Z" transform="translate(-23.801 -23.584)" fill="#27405c" stroke="#27405c" stroke-width="1"/>
        <path id="Path_4277" data-name="Path 4277" d="M1738.815,212.083c.085-.52.155-1.254.334-1.96a1.325,1.325,0,0,0-.5-1.5,13.375,13.375,0,0,1-1.559-1.542c-.667-.783-.473-1.427.518-1.682.806-.207,1.654-.252,2.461-.457a1.546,1.546,0,0,0,.858-.626c.421-.687.7-1.462,1.114-2.154.577-.96,1.266-.957,1.854,0,.421.689.711,1.459,1.142,2.14a1.547,1.547,0,0,0,.873.61c.76.18,1.557.2,2.32.367,1.132.251,1.36.931.606,1.8-.53.61-1.169,1.126-1.692,1.741a1.424,1.424,0,0,0-.294.953c.063.726.275,1.438.359,2.163.16,1.394-.428,1.832-1.694,1.266-.667-.3-1.282-.715-1.959-.981a1.56,1.56,0,0,0-1.068.008c-.745.309-1.426.77-2.168,1.087C1739.333,213.739,1738.778,213.333,1738.815,212.083Zm4.15-9.051c-.356.735-.671,1.282-.893,1.865a1.926,1.926,0,0,1-1.845,1.321c-.611.045-1.216.181-1.98.3.572.546.994,1.011,1.479,1.4a1.961,1.961,0,0,1,.709,2.163c-.137.6-.218,1.222-.349,1.984a18.188,18.188,0,0,0,1.648-.884,2.108,2.108,0,0,1,2.552-.032c.483.31,1.019.537,1.666.872a17.625,17.625,0,0,0-.344-1.892,2.03,2.03,0,0,1,.768-2.354c.442-.364.826-.8,1.354-1.32-.947-.134-1.666-.253-2.388-.333a1.558,1.558,0,0,1-1.319-.968C1743.711,204.494,1743.374,203.851,1742.964,203.033Z" transform="translate(-47.27 -48.419)" fill="#27405c" stroke="#27405c" stroke-width="1"/>
      </g>
    </g>
  </g>
</svg>
