<svg xmlns="http://www.w3.org/2000/svg" xmlns:xlink="http://www.w3.org/1999/xlink" width="37" height="41" viewBox="0 0 37 41">
  <defs>
    <clipPath id="clip-path">
      <rect width="37" height="41" fill="none"/>
    </clipPath>
  </defs>
  <g id="Symbol_13_28" data-name="Symbol 13 – 28" clip-path="url(#clip-path)">
    <path id="Path_3" data-name="Path 3" d="M18.8,3.342a57.646,57.646,0,0,1,7.52.209,9.689,9.689,0,0,1,3.551.627,7.336,7.336,0,0,1,3.551,3.551,9.689,9.689,0,0,1,.627,3.551c0,1.88.209,2.507.209,7.52a57.646,57.646,0,0,1-.209,7.52,9.689,9.689,0,0,1-.627,3.551,7.336,7.336,0,0,1-3.551,3.551,9.689,9.689,0,0,1-3.551.627c-1.88,0-2.507.209-7.52.209a57.646,57.646,0,0,1-7.52-.209,9.689,9.689,0,0,1-3.551-.627,7.336,7.336,0,0,1-3.551-3.551,9.689,9.689,0,0,1-.627-3.551c0-1.88-.209-2.507-.209-7.52a57.646,57.646,0,0,1,.209-7.52,9.689,9.689,0,0,1,.627-3.551A7.5,7.5,0,0,1,5.64,5.64,3.532,3.532,0,0,1,7.729,4.178a9.689,9.689,0,0,1,3.551-.627,57.646,57.646,0,0,1,7.52-.209M18.8,0a61.722,61.722,0,0,0-7.729.209,12.9,12.9,0,0,0-4.6.836A8.178,8.178,0,0,0,3.133,3.133,8.178,8.178,0,0,0,1.044,6.476a9.518,9.518,0,0,0-.836,4.6A61.722,61.722,0,0,0,0,18.8a61.722,61.722,0,0,0,.209,7.729,12.9,12.9,0,0,0,.836,4.6,8.178,8.178,0,0,0,2.089,3.342,8.178,8.178,0,0,0,3.342,2.089,12.9,12.9,0,0,0,4.6.836A61.721,61.721,0,0,0,18.8,37.6a61.721,61.721,0,0,0,7.729-.209,12.9,12.9,0,0,0,4.6-.836,8.764,8.764,0,0,0,5.431-5.431,12.9,12.9,0,0,0,.836-4.6c0-2.089.209-2.716.209-7.729a61.721,61.721,0,0,0-.209-7.729,12.9,12.9,0,0,0-.836-4.6,8.178,8.178,0,0,0-2.089-3.342,8.178,8.178,0,0,0-3.342-2.089,12.9,12.9,0,0,0-4.6-.836A61.722,61.722,0,0,0,18.8,0m0,9.191A9.454,9.454,0,0,0,9.191,18.8,9.609,9.609,0,1,0,18.8,9.191m0,15.876A6.155,6.155,0,0,1,12.534,18.8,6.155,6.155,0,0,1,18.8,12.534,6.155,6.155,0,0,1,25.067,18.8,6.155,6.155,0,0,1,18.8,25.067M28.827,6.476a2.3,2.3,0,1,0,2.3,2.3,2.318,2.318,0,0,0-2.3-2.3" fill="#e0ab26" fill-rule="evenodd"/>
  </g>
</svg>
