<svg id="Layer_1" data-name="Layer 1" xmlns="http://www.w3.org/2000/svg" viewBox="0 0 156 156"><defs><style>.cls-1{fill:#fff;}</style></defs><path class="cls-1" d="M100.29,152.78l-29-28.07L100.38,97.1c0,.14.05.46.05.78,0,3.55,0,7.1,0,10.65,0,1,.3,1.32,1.34,1.32,10.25,0,20.49,0,30.73,0,4.16,0,8.25-.56,11.94-2.6,4.37-2.42,7-6.17,9-10.58a65.67,65.67,0,0,1-.83,6.76c-3.68,15.94-12.7,27.75-28.91,33.84a39.81,39.81,0,0,1-14.21,2.47c-2.55,0-5.11,0-7.66,0-1,0-1.31.35-1.31,1.26,0,3.59,0,7.18,0,10.76v1Z"/><path class="cls-1" d="M2.52,61.81,42.36,51.59C45.92,64.47,49.42,77.18,53,90.19l-5.37-3c-1.86-1-3.74-2-5.55-3.17-.75-.46-1.08-.36-1.49.33-2.3,3.85-4.65,7.68-7,11.53-3.13,5.18-6.3,10.34-9.32,15.59a19.25,19.25,0,0,0-2.73,10.19,18.59,18.59,0,0,0,5,12.19,5.46,5.46,0,0,1-.64-.32A44.47,44.47,0,0,1,8.91,114.69a44,44,0,0,1-4.23-12.84,37.53,37.53,0,0,1,5-25.59c1.4-2.32,2.79-4.66,4.24-7,.42-.67.34-1-.37-1.35C10.25,66.17,7,64.33,3.75,62.5Z"/><path class="cls-1" d="M83.53,52.76l7-3.94c1.27-.72,2.52-1.48,3.83-2.11.88-.42.92-.89.48-1.62q-2.59-4.35-5.16-8.71c-3.28-5.58-6.53-11.17-9.85-16.73-2.2-3.69-4.92-7-8.91-9A19.85,19.85,0,0,0,58.06,8.78L56.9,9l-.12-.27C58.84,7.81,60.86,6.8,63,6c5.83-2.22,11.93-2.8,18.16-2.79A43.76,43.76,0,0,1,97.36,6.34,39.54,39.54,0,0,1,118.23,24.6c1,1.77,2,3.47,3,5.24.49.87,1,.95,1.89.46,3.16-1.76,6.36-3.47,9.54-5.2l1.06-.56C130.16,37.37,126.61,50,123,62.82Z"/><path class="cls-1" d="M124,104.3c.79-2.7,1-5.31-.06-7.82a40.79,40.79,0,0,0-2.35-4.17c-2.5-4.22-5-8.44-7.54-12.63-.47-.78-.36-1.17.46-1.62q12.52-6.86,25-13.78c.52-.29,1-.6,1.42.15,2.47,4.46,5.5,8.64,7.33,13.43,2,5.24,2.64,10.51.83,16-1.86,5.6-5.86,8.7-11.74,9.82C133,104.47,128.6,104.29,124,104.3Z"/><path class="cls-1" d="M78.73,29.06c-1,.38-2,.68-2.89,1.08a11.61,11.61,0,0,0-5.38,4.74L61.54,49.63c-.18.29-.37.57-.61.94l-2.48-1.35Q46.84,42.8,35.21,36.41c-.94-.52-1.09-1-.55-1.87,2.58-4.3,5-8.71,8.32-12.53,3.11-3.54,6.69-6.52,11.37-7.9,7.66-2.26,12.88-.89,17.92,5.06a45.11,45.11,0,0,1,3.32,4.57C76.7,25.46,77.67,27.26,78.73,29.06Z"/><path class="cls-1" d="M34.34,105.44A13.31,13.31,0,0,0,45,109.67c5.42-.12,10.85,0,16.28,0,1,0,1.36.25,1.35,1.27q-.06,13.71,0,27.41c0,.95-.29,1.26-1.28,1.23-4.41-.12-8.84,0-13.24-.34-5.8-.45-11.2-2.16-15.49-6.16-3.48-3.25-5.85-7-5.16-11.93a18.5,18.5,0,0,1,1.48-5.36C30.53,112.31,32.44,109,34.34,105.44Z"/></svg>