<?xml version="1.0" encoding="utf-8"?>
<!-- Generator: Adobe Illustrator 24.0.3, SVG Export Plug-In . SVG Version: 6.00 Build 0)  -->
<svg version="1.1" id="Layer_1" xmlns="http://www.w3.org/2000/svg" xmlns:xlink="http://www.w3.org/1999/xlink" x="0px" y="0px"
	 viewBox="0 0 156 156" style="enable-background:new 0 0 156 156;" xml:space="preserve">
<style type="text/css">
	.st0{fill:#27405D;}
</style>
<g id="Group_654" transform="translate(-1034 -1345)">
	<g id="Group_542" transform="translate(-508.32 24.697) rotate(42)">
		<path id="Path_4278" class="st0" d="M2118.3-37c0-8.2,0-16.5,0-24.7c0-1.3,0.5-2.6,1.4-3.6c6.3-6.6,12.6-13.3,18.9-19.9
			c1.5-1.7,4.1-1.9,5.8-0.3c0.1,0.1,0.2,0.2,0.3,0.3c6.4,6.8,12.8,13.7,19.2,20.6c0.6,0.8,1,1.8,0.9,2.8c0.1,8.9,0,17.8,0,26.7
			c0,7.7,0,15.4,0,23.2c0,2.1-0.4,2.4-2.4,2.4c-13.9,0-27.7,0-41.6,0c-2.2,0-2.6-0.4-2.6-2.6C2118.3-20.4,2118.3-28.7,2118.3-37z
			 M2161.8-12.7v-1.1c0-15.8,0-31.7,0-47.5c0-0.6-0.3-1.2-0.7-1.7c-6.1-6.5-12.2-13-18.3-19.4c-1-1.1-1.4-1.1-2.4,0
			c-5.9,6.3-11.9,12.6-17.8,18.8c-0.7,0.7-1,1.6-1,2.5c0,15.8,0,31.5,0,47.3c0,0.3,0,0.6,0.1,1L2161.8-12.7z"/>
		<path id="Path_4279" class="st0" d="M2157.1-26.6c0,1.3-0.5,2.1-1.6,2.1c-2.6,0.1-3.8,1.3-4.2,3.8c-0.2,1.3-1.2,1.8-2.5,1.4
			l-0.1,0c-1.2-0.3-2.4-1.1-3.4-0.8s-1.8,1.6-2.6,2.4c-1,0.9-1.7,1-2.7,0c-0.3-0.3-0.7-0.6-0.9-0.9c-1.1-1.9-3.5-2.6-5.5-1.7
			c-0.5,0.2-0.9,0.2-1.4,0.3c-0.8,0.1-1.6-0.4-1.8-1.2c-0.1-0.2-0.2-0.5-0.2-0.7c0.1-2.4-1.2-3.4-3.5-3.8c-1.8-0.3-2.2-1.1-1.5-2.8
			c1-2.3,0.7-4-1.4-5.5c-1.6-1.2-1.4-1.9,0-3.3c0.2-0.2,0.4-0.4,0.6-0.6c2.1-1.3,2.3-3.1,1.6-5.3c-0.1-0.4-0.2-0.9-0.2-1.3
			c-0.1-1.1,0.4-1.9,1.5-1.9c2.6-0.1,3.9-1.3,4.2-3.9c0.2-1.3,1.2-1.7,2.5-1.4c0.6,0.1,1.1,0.3,1.7,0.5c1.5,0.8,2.5,0.2,3.6-0.9
			c2.4-2.5,2.5-2.6,4.9,0c1.4,1.6,2.8,2.2,4.8,1.4c0.4-0.1,0.8-0.2,1.3-0.3c1.5-0.3,2.4,0.2,2.5,1.8c0.1,2.2,1,3.5,3.4,3.8
			c1.8,0.2,2.4,1.3,1.6,2.9c-1.1,2.4-0.6,4.1,1.4,5.6c1.2,0.9,1.1,1.8,0,2.9c-0.6,0.7-1.3,1.4-2,2c-0.8,0.6-1.1,1.6-0.7,2.5
			C2156.8-28.5,2157-27.5,2157.1-26.6z M2127.1-35.5c0.7,0.6,1.4,1.2,2.1,1.8c0.7,0.6,0.9,1.5,0.6,2.3c-0.3,0.9-0.5,1.8-0.7,2.7
			c1.2,0.5,2.7,0.6,3.4,1.5c0.8,0.9,0.8,2.3,1.2,3.6c1-0.2,2-0.4,3-0.6c0.9-0.3,2,0,2.6,0.8c0.7,0.8,1.5,1.6,2.4,2.6
			c1.7-3.1,4.1-3.3,6.8-1.9c0.5-1.3,0.7-2.8,1.5-3.5s2.3-0.8,3.6-1.2c-0.2-1-0.3-2-0.5-3.1c-0.3-1,0.1-2,0.9-2.6
			c0.8-0.6,1.5-1.3,2.4-2.1c-3.1-1.7-3.3-4.2-1.9-6.8c-1.3-0.5-2.8-0.7-3.5-1.6s-0.8-2.3-1.1-3.6c-1,0.2-2.1,0.4-3.2,0.6
			c-0.8,0.2-1.7-0.1-2.3-0.7c-0.8-0.8-1.5-1.7-2.5-2.6c-1.7,3.1-4.1,3.3-7.2,1.7c0.1,3.5-1.7,4.7-4.8,4.6c0.2,1.3,0.4,2.5,0.6,3.6
			c0.2,0.8-0.1,1.6-0.8,2.2C2128.9-37.2,2128.1-36.4,2127.1-35.5L2127.1-35.5z"/>
		<path id="Path_4280" class="st0" d="M2141.8-75.3c4.1,0,7.4,3.3,7.4,7.4c0,0,0,0,0,0c0,4.1-3.3,7.5-7.4,7.5c-0.1,0-0.1,0-0.2,0
			c-4.1,0-7.4-3.4-7.4-7.5c0-4.1,3.3-7.4,7.4-7.4C2141.7-75.3,2141.7-75.3,2141.8-75.3z M2141.7-63.7c2.3,0,4.1-1.8,4.1-4.1
			c0,0,0,0,0,0c0-2.3-1.8-4.1-4.1-4.2c0,0-0.1,0-0.1,0c-2.3,0-4.1,1.8-4.1,4.1c0,0,0,0,0,0c0,2.3,1.8,4.1,4.1,4.2
			C2141.7-63.7,2141.7-63.7,2141.7-63.7z"/>
		<path id="Path_4281" class="st0" d="M2134.7-27.7c0.3-0.4,0.5-0.7,0.7-1c3.1-4.2,6.1-8.4,9.2-12.5c1.4-1.9,1.4-1.9,4-1.7
			c-0.3,0.4-0.5,0.7-0.7,1c-3.1,4.3-6.3,8.5-9.3,12.8C2137.5-27.6,2136.4-27.4,2134.7-27.7z"/>
		<path id="Path_4282" class="st0" d="M2146.1-34.5c1.9-0.1,3.5,1.5,3.6,3.4c0.1,1.9-1.5,3.5-3.4,3.6c-1.9,0.1-3.5-1.5-3.6-3.4
			c0,0,0-0.1,0-0.1C2142.7-32.9,2144.2-34.4,2146.1-34.5C2146.1-34.5,2146.1-34.5,2146.1-34.5z M2147.8-30.9c-0.7-0.7-1-1.4-1.6-1.6
			c-0.5-0.3-1.2,0.7-1.2,1.6c0.1,0.7,0.2,1.7,1.1,1.5C2146.7-29.5,2147.1-30.3,2147.8-30.9L2147.8-30.9z"/>
		<path id="Path_4283" class="st0" d="M2140.7-40c0.1,1.9-1.4,3.4-3.2,3.5c0,0,0,0-0.1,0c-1.9-0.1-3.4-1.6-3.3-3.5
			c0-1.8,1.4-3.4,3.3-3.5C2139.2-43.4,2140.7-41.9,2140.7-40z M2138.8-39.8c-0.7-0.7-1.1-1.3-1.6-1.6c-0.5-0.2-1.2,0.8-1.1,1.7
			c0.1,0.7,0.2,1.7,1.2,1.5C2137.8-38.3,2138.2-39.1,2138.8-39.8L2138.8-39.8z"/>
	</g>
</g>
</svg>
