<svg xmlns="http://www.w3.org/2000/svg" width="156" height="156" viewBox="0 0 156 156">
  <g id="Group_655" data-name="Group 655" transform="translate(-1034 -973)">
    <g id="Ellipse_8" data-name="Ellipse 8" transform="translate(1034 973)" fill="none" stroke="#dfa91e" stroke-width="3">
      <circle cx="78" cy="78" r="78" stroke="none"/>
      <circle cx="78" cy="78" r="76.5" fill="none"/>
    </g>
    <g id="Group_651" data-name="Group 651" transform="translate(8 5.588)">
      <g id="Group_537" data-name="Group 537" transform="translate(1073 1012)">
        <path id="Path_4271" data-name="Path 4271" d="M1751.691,575.261h-15.538c-1.341-.121-2.686-.213-4.023-.369-5.132-.6-10.293-1.034-15.383-1.894-3.4-.575-3.9-1.546-3.9-4.912q0-28.108,0-56.216c0-2.885.509-3.841,3.3-4.478a75.281,75.281,0,0,1,10.014-1.614,200.273,200.273,0,0,1,35.648.006,74.3,74.3,0,0,1,10.185,1.682c2.7.629,3.106,1.457,3.114,4.213,0,1.294-.079,2.6.034,3.88a3.5,3.5,0,0,0,.726,1.958c4.954,5.42,9.225,11.227,10.967,18.539v4.069c-.863,2.678-2.021,5.242-4.5,6.752-2.17,1.323-4.555,2.3-6.845,3.422l-.385-.367v2q0,8.136,0,16.272c0,3.215-.493,4.084-3.646,4.755-3.363.716-6.795,1.148-10.215,1.541C1758.075,574.865,1754.877,575.016,1751.691,575.261Zm-29.3-60.542-6.119-1.054v51.37c0,4.482,0,4.466,4.487,5.062a193.584,193.584,0,0,0,36.54.968c4.05-.23,8.074-.893,12.112-1.346,1.6-.18,2.388-.735,2.32-2.66-.184-5.17-.06-10.351-.066-15.528,0-.6-.053-1.192-.084-1.843-6.415-1.385-11.484-4.974-15.948-9.379-3.41-3.366-6.47-7.092-9.61-10.723a4.28,4.28,0,0,0-2.9-1.882,4.018,4.018,0,0,1-3.268-4.8,4.116,4.116,0,0,1,4.286-3.52c2.165.105,4.154,1.944,3.785,4.145-.355,2.117.662,3.35,1.765,4.719,1.083,1.343,2.149,2.7,3.3,3.989,4.239,4.754,8.687,9.28,14.49,12.161a42.042,42.042,0,0,0,4.119,1.538V513.7c-13.435,2.352-26.9,2.223-40.6,1.753,0,3.239-.009,6.364,0,9.489.006,1.338.059,2.878-1.753,2.851-1.835-.027-1.665-1.62-1.665-2.922,0-2.773-.036-5.547.016-8.319.023-1.21-.351-1.754-1.788-1.348v1.959q0,14.79,0,29.581c0,.554.167,1.234-.089,1.632-.38.589-1.069,1.346-1.629,1.348s-1.258-.761-1.6-1.358a4.041,4.041,0,0,1-.1-1.818q-.005-14.882,0-29.765Zm52.869,7.829v23.39c5.117-.885,8.334-4.363,7.78-8.583C1782.29,531.641,1778.842,527.3,1775.261,522.548Zm-7.741-12.168a176.738,176.738,0,0,0-47.221.021A176.771,176.771,0,0,0,1767.52,510.381Z" transform="translate(-1712.476 -504.849)" fill="#27405c"/>
        <rect id="Rectangle_1109" data-name="Rectangle 1109" width="74" height="70" transform="translate(0 0.412)" fill="none"/>
      </g>
      <g id="Group_539" data-name="Group 539" transform="translate(1092.424 1047.084)">
        <path id="Path_4275" data-name="Path 4275" d="M1699.374,170.122c-.207.771-.371,1.493-.6,2.191-.082.244-.315.574-.517.6s-.526-.225-.657-.44c-.747-1.23-1.442-2.491-2.183-3.724a1.285,1.285,0,0,0-.56-.358c-.492-.234-1.018-.406-1.481-.684a.967.967,0,0,0-1.1,0c-.526.281-1.12.432-1.671.67a.914.914,0,0,0-.373.374c-.7,1.185-1.364,2.39-2.085,3.561a3.143,3.143,0,0,1-.761.635,3.536,3.536,0,0,1-.529-.778c-.227-.655-.382-1.335-.579-2.054-.773.207-1.5.427-2.239.584-.234.05-.639.012-.725-.13a.931.931,0,0,1,.026-.792c.743-1.33,1.533-2.633,2.3-3.95.394-.676.24-1-.526-1.149-1.906-.366-1.919-.366-1.912-2.314a.9.9,0,0,0-.529-.893c-1.644-.946-1.651-.964-1.015-2.716a1.006,1.006,0,0,0-.186-1.141c-1.2-1.424-1.194-1.445.008-2.894a.976.976,0,0,0,.2-1.085c-.636-1.8-.628-1.819,1.01-2.763a.9.9,0,0,0,.513-.9c-.01-2.109.037-1.934,1.933-2.289a.869.869,0,0,0,.748-.643c.693-1.9.587-1.851,2.647-1.524a1.015,1.015,0,0,0,.8-.277c1.419-1.646,1.271-1.56,3.115-.544a1.093,1.093,0,0,0,.8,0,7.22,7.22,0,0,0,1.059-.571.84.84,0,0,1,1.233.232,2.124,2.124,0,0,0,2.752,1.016.823.823,0,0,1,1.112.671,2.1,2.1,0,0,0,2.206,1.862.858.858,0,0,1,.841,1.059,2.063,2.063,0,0,0,1.411,2.453.851.851,0,0,1,.451,1.271,2.069,2.069,0,0,0,.483,2.792.883.883,0,0,1,0,1.4,2.072,2.072,0,0,0-.479,2.8.858.858,0,0,1-.46,1.271,2.017,2.017,0,0,0-1.4,2.39c.106.667-.3,1.065-.97,1.169-.293.046-.581.115-.873.167-.834.148-.979.468-.541,1.221.734,1.262,1.488,2.514,2.2,3.789a2.732,2.732,0,0,1,.154.866,3.088,3.088,0,0,1-.92.109C1700.8,170.535,1700.136,170.323,1699.374,170.122Zm-.94-23.751a6.786,6.786,0,0,0-.964.155,1.739,1.739,0,0,1-2.075-.764c-.73-.936-.478-.838-1.488-.246a1.693,1.693,0,0,1-1.988.1c-1.013-.642-1.068-.617-1.823.329a1.488,1.488,0,0,1-1.714.609,10.676,10.676,0,0,0-1.156-.188,12.4,12.4,0,0,0-.461,1.2,1.43,1.43,0,0,1-1.313,1.093c-1.228.2-1.26.226-1.232,1.474a1.483,1.483,0,0,1-.878,1.532c-.356.176-.685.409-1.006.6a5.676,5.676,0,0,1,.479,2.107c-.122.66-.751,1.227-1.168,1.849a4.994,4.994,0,0,0,.48.595,1.8,1.8,0,0,1,.42,2.441c-.354.623-.143,1,.48,1.252a1.757,1.757,0,0,1,1.2,1.917c-.066,1.248-.156,1.02,1.053,1.225a1.661,1.661,0,0,1,1.521,1.2c.364,1.146.419,1.18,1.609.929a1.5,1.5,0,0,1,1.7.646c.223.3.492.576.835.973,1.232-1.3,2.531-1.179,3.787-.03a6.644,6.644,0,0,0,.605-.7,1.748,1.748,0,0,1,2.28-.808c.651.234.98.006,1.123-.644a1.8,1.8,0,0,1,1.7-1.584c1.2-.15,1.015.014.994-1.2a1.746,1.746,0,0,1,.967-1.809c.994-.527,1.007-.585.585-1.653a1.579,1.579,0,0,1,.344-1.9,11.818,11.818,0,0,0,.794-.978c-1.524-1-1.593-2.309-.695-3.748-.409-.252-.718-.479-1.056-.642a1.559,1.559,0,0,1-.936-1.629c.032-1.2-.006-1.226-1.16-1.4a1.5,1.5,0,0,1-1.4-1.157A11.51,11.51,0,0,0,1698.433,146.371Zm-12.185,20.581-1.4,2.392c.6-.149,1.067-.249,1.526-.385a.6.6,0,0,1,.855.483c.132.472.267.944.436,1.541.673-1.164,1.285-2.2,1.871-3.248.189-.338-.344-.976-.777-.938-.315.028-.624.131-.939.149C1687.361,166.972,1686.9,166.952,1686.249,166.952Zm13.117-.06a10.143,10.143,0,0,1-1.809-.021c-.713-.138-1.245-.066-1.544.707l1.976,3.41c.159-.559.3-.992.4-1.436.124-.545.4-.75.961-.572.429.137.875.224,1.449.367Z" transform="translate(-1680.574 -143.957)" fill="#27405c" stroke="#27405c" stroke-width="1"/>
        <path id="Path_4276" data-name="Path 4276" d="M1717.455,189.251a8.647,8.647,0,1,1,8.672-8.7A8.655,8.655,0,0,1,1717.455,189.251Zm7.7-8.579a7.677,7.677,0,1,0-7.739,7.627A7.655,7.655,0,0,0,1725.156,180.672Z" transform="translate(-1705.225 -168.383)" fill="#27405c" stroke="#27405c" stroke-width="1"/>
        <path id="Path_4277" data-name="Path 4277" d="M1738.411,210.055c.068-.421.125-1.015.27-1.587a1.073,1.073,0,0,0-.408-1.215,10.822,10.822,0,0,1-1.262-1.248c-.54-.633-.383-1.155.42-1.361.653-.168,1.339-.2,1.992-.37a1.251,1.251,0,0,0,.694-.507c.341-.556.565-1.183.9-1.743.467-.777,1.024-.775,1.5,0,.341.557.576,1.181.925,1.732a1.252,1.252,0,0,0,.707.494c.615.145,1.26.16,1.877.3.916.2,1.1.753.49,1.456-.429.494-.946.911-1.369,1.409a1.152,1.152,0,0,0-.238.771c.051.587.223,1.163.29,1.75.129,1.128-.347,1.483-1.371,1.025-.539-.241-1.038-.578-1.586-.794a1.262,1.262,0,0,0-.864.007c-.6.25-1.154.623-1.754.879C1738.83,211.395,1738.381,211.066,1738.411,210.055Zm3.358-7.325c-.288.595-.543,1.037-.723,1.509a1.559,1.559,0,0,1-1.493,1.069c-.495.036-.984.146-1.6.243.463.442.8.818,1.2,1.13a1.587,1.587,0,0,1,.573,1.75c-.111.49-.176.989-.283,1.606a14.737,14.737,0,0,0,1.334-.716,1.706,1.706,0,0,1,2.065-.026c.391.251.824.435,1.349.706a14.291,14.291,0,0,0-.278-1.532,1.643,1.643,0,0,1,.621-1.905c.358-.295.668-.647,1.1-1.068-.767-.108-1.348-.2-1.933-.27a1.261,1.261,0,0,1-1.068-.783C1742.373,203.912,1742.1,203.392,1741.769,202.73Z" transform="translate(-1729.531 -194.105)" fill="#27405c" stroke="#27405c" stroke-width="1"/>
      </g>
    </g>
  </g>
</svg>
