<svg xmlns="http://www.w3.org/2000/svg" width="156" height="156" viewBox="0 0 156 156">
  <g id="Group_641" data-name="Group 641" transform="translate(2899 -8357)">
    <g id="Group_628" data-name="Group 628" transform="translate(185)">
      <g id="Group_619" data-name="Group 619" transform="translate(-3272 7012)">
        <g id="Ellipse_8" data-name="Ellipse 8" transform="translate(188 1345)" fill="#dfa91e" stroke="#dfa91e" stroke-width="3">
          <circle cx="78" cy="78" r="78" stroke="none"/>
          <circle cx="78" cy="78" r="76.5" fill="none"/>
        </g>
        <g id="Group_534" data-name="Group 534" transform="translate(2213.022 -439.281)">
          <path id="Path_4265" data-name="Path 4265" d="M-1967.319,1908.237c-1.119.361-2.026.63-2.915.949a1.719,1.719,0,0,1-1.961-.406c-3.846-3.849-7.706-7.686-11.52-11.567a2.8,2.8,0,0,1-.545-1.477,11.159,11.159,0,0,1-.021-1.744c-.185-.1-.249-.161-.3-.151-2.065.374-3.413-.692-4.723-2.123-1.857-2.031-3.88-3.91-5.824-5.863-1.2-1.2-1.192-1.9.012-3.1q10.133-10.141,20.258-20.287a8.545,8.545,0,0,0,.906-1.417,7.537,7.537,0,0,1,.862-1.232q5.933-5.972,11.9-11.912a8.911,8.911,0,0,1,10.593-1.773c2.338,1.135,4.671,2.166,7.369,2.023a11.1,11.1,0,0,0,8.567-4.267,127.868,127.868,0,0,1,15.405-16.7,34.221,34.221,0,0,1,9.118-6.265,9.449,9.449,0,0,1,5.751-.869,7.962,7.962,0,0,1,5.985,10.3,26.058,26.058,0,0,1-5.49,9.215,103.551,103.551,0,0,1-17.178,16.216,12.083,12.083,0,0,0-3.727,15.576,14.915,14.915,0,0,1,1.47,4.4,7.938,7.938,0,0,1-2.338,7c-4.115,4.206-7.982,8.745-12.559,12.382-4.15,3.3-7.61,7.2-11.417,10.788s-7.43,7.385-11.135,11.088c-1.266,1.265-1.9,1.271-3.169.021s-2.474-2.53-3.763-3.74a2.014,2.014,0,0,1-.522-2.479C-1967.916,1910.033-1967.667,1909.229-1967.319,1908.237Zm36.963-27.329c2.7-2.059,3.178-3.953,1.744-7.008-.36-.767-.718-1.538-1.038-2.323a16.146,16.146,0,0,1,4.59-18.39c1.621-1.346,3.312-2.609,4.915-3.976a95.177,95.177,0,0,0,14.325-14.613c1.458-1.918,2.848-3.91,3.2-6.4a3.2,3.2,0,0,0-3.666-3.635,13.093,13.093,0,0,0-3.852,1.485,48.427,48.427,0,0,0-10.8,9.108c-3.581,3.858-6.938,7.923-10.391,11.9a16.161,16.161,0,0,1-10.344,5.55,16.533,16.533,0,0,1-10.208-2.052c-3.115-1.649-5.242-.741-7.093,1.706Zm-12.5,13.34-29.677-29.711a5.737,5.737,0,0,1-.6.831c-3.452,3.47-6.867,6.98-10.405,10.361a2.75,2.75,0,0,0-.672,3.442,7.116,7.116,0,0,0,3.905,3.84c3.375,1.479,6.825,2.8,10.285,4.07,4.225,1.557,8.538,2.887,12.725,4.536a13.969,13.969,0,0,1,7.36,5.855,22.3,22.3,0,0,1,1.141,2.708Zm9.908-10.825-28.5-28.537-6.752,6.751,28.505,28.544Z" transform="translate(0 0)" fill="#27405c"/>
          <path id="Path_4266" data-name="Path 4266" d="M-1562.6,1855.231a1.7,1.7,0,0,1-1.6-1.652,1.589,1.589,0,0,1,1.564-1.544,1.56,1.56,0,0,1,1.63,1.561A1.635,1.635,0,0,1-1562.6,1855.231Z" transform="translate(-343.537 -25.566)" fill="#27405c"/>
        </g>
      </g>
    </g>
  </g>
</svg>
