<svg xmlns="http://www.w3.org/2000/svg" width="38" height="38" viewBox="0 0 38 38">
  <path id="Icon_awesome-pinterest-square" data-name="Icon awesome-pinterest-square" d="M38,6.321V36.179a4.072,4.072,0,0,1-4.071,4.071H13.1a21.734,21.734,0,0,0,2.324-5.03c.254-.975,1.3-4.954,1.3-4.954a5.569,5.569,0,0,0,4.775,2.392c6.285,0,10.806-5.776,10.806-12.952,0-6.879-5.615-12.028-12.842-12.028-8.991,0-13.758,6.031-13.758,12.6,0,3.054,1.629,6.854,4.224,8.067.4.187.6.1.7-.28.068-.288.424-1.7.577-2.358a.614.614,0,0,0-.144-.594A8.119,8.119,0,0,1,9.5,20.368a9.016,9.016,0,0,1,9.407-9.042c5.115,0,8.7,3.486,8.7,8.474,0,5.632-2.842,9.534-6.548,9.534a3.029,3.029,0,0,1-3.087-3.766c.585-2.477,1.722-5.149,1.722-6.938,0-4.5-6.4-3.876-6.4,2.121a7.611,7.611,0,0,0,.619,3.1C11.247,35.11,10.849,35.254,11.4,40.182l.187.068H4.071A4.072,4.072,0,0,1,0,36.179V6.321A4.072,4.072,0,0,1,4.071,2.25H33.929A4.072,4.072,0,0,1,38,6.321Z" transform="translate(0 -2.25)" fill="#e0ab26"/>
</svg>
