<svg id="Layer_1" data-name="Layer 1" xmlns="http://www.w3.org/2000/svg" viewBox="0 0 156 156"><defs><style>.cls-1{fill:#fff;}</style></defs><path class="cls-1" d="M78.05,152.12H7.73c-2.91,0-3.81-.91-3.81-3.83q0-56.37,0-112.73a4.14,4.14,0,0,1,.94-2.69C13.75,23.93,22.71,15.1,31.55,6.15A7,7,0,0,1,37,3.88q41.22.11,82.43,0a6.18,6.18,0,0,1,4.81,2.05c8.87,9,17.88,17.88,26.77,26.86a4.44,4.44,0,0,1,1,2.84q.08,35.7,0,71.4v41c0,3.29-.81,4.12-4.06,4.12ZM9.7,146.3H146.24V116.59H9.7Zm120.43-35.6V61.34C117.51,62.76,108,58.16,101.72,47c-5.19,9.38-13,14.51-23.65,14.54s-18.56-5.12-23.8-14.52C47.93,58.23,38.37,62.8,25.83,61.35V110.7ZM65.29,9.63C62.93,17.1,60.6,24.5,58.23,32H97.67L97,30.11,91.14,12.8c-1.08-3.18-1.08-3.18-4.44-3.18ZM142,32a7.28,7.28,0,0,0-.57-.73Q131,20.82,120.51,10.4a3.13,3.13,0,0,0-2-.74c-3.92-.07-7.83,0-11.75,0H96.08L103.71,32ZM59.29,9.63c-7.69,0-15,0-22.4,0a3.08,3.08,0,0,0-1.72,1q-10,10-20,20c-.36.36-.67.74-1.09,1.21a3.47,3.47,0,0,0,.67.16c12.11,0,24.21,0,36.32,0,1.15,0,1.36-.62,1.61-1.43q2.55-8.13,5.11-16.27C58.26,12.9,58.74,11.39,59.29,9.63ZM9.69,110.69H20V108.5c0-15-.07-30,.07-45,0-2.72-.53-4.32-3.16-5.6-2.27-1.11-4.05-3.21-6-4.89a15,15,0,0,1-1.21-1.29ZM146.32,52.37c-2.87,2.12-5.73,4.4-8.79,6.37a2.77,2.77,0,0,0-1.59,2.73q.06,23.67,0,47.36v1.84h10.35ZM10,38.18c.2,9.07,9.94,17.66,20.19,17.93s20.27-8.34,20.86-17.93Zm88.58,0H57.42c.8,9.64,10.34,17.9,20.57,17.92S97.67,47.94,98.58,38.19Zm6.32,0c1.18,10.88,11.67,19,23,17.75C138,54.77,145.83,46,145.89,38.16Z"/><path class="cls-1" d="M76.12,76.74c3.8-5.82,9.45-9.29,15.62-12.12,2.26-1,4.45-2.22,6.69-3.31a3,3,0,0,1,4.38,1.6c7.63,17.89-2.62,38.63-22.27,41.66A29.25,29.25,0,0,1,46.59,79a30.05,30.05,0,0,1,2.13-15.49c.81-2,2.27-2.65,4.09-1.84q5.5,2.48,11,5a29.2,29.2,0,0,1,11.33,9.22c.18.23.36.47.56.68S75.9,76.64,76.12,76.74Zm23-6.28C93.22,79.9,87.4,89.19,81.5,98.6,93.17,97,102.65,81.94,99.15,70.46ZM52.5,71c-3.68,10.49,6.23,25.89,17.62,27.54ZM77.08,94.91,92,71.09C82.34,74.89,75.6,83.73,77.08,94.91Zm-5.85-5.18c.53-2.2,1-4,1.34-5.77a3,3,0,0,0-.21-1.84c-2.73-5.42-7.12-8.94-13.17-11.22Z"/></svg>